<svg width="24" height="31" viewBox="0 0 24 31" fill="none" xmlns="http://www.w3.org/2000/svg">
<path d="M4.2959 29.5842V19.8018" stroke="#E43D30" stroke-linecap="round" stroke-linejoin="round"/>
<path d="M19.5684 29.5842V19.8018" stroke="#E43D30" stroke-linecap="round" stroke-linejoin="round"/>
<path d="M16.9159 18.9595V24.2575C16.9159 24.8811 16.4093 25.3877 15.7857 25.3877H8.07944C7.45581 25.3877 6.94922 24.8811 6.94922 24.2575V18.9595" stroke="#E43D30" stroke-linecap="round" stroke-linejoin="round"/>
<path d="M11.9307 29.5843V25.3877" stroke="#E43D30" stroke-linecap="round" stroke-linejoin="round"/>
<path d="M10.0023 18.9019H7.82052C7.5231 18.9019 7.23142 18.921 6.94742 18.9575C5.99374 19.0688 5.0938 19.3605 4.29362 19.7999C2.03127 21.0529 0.5 23.4573 0.5 26.2224V29.5823H23.3673V26.2224C23.3673 23.4573 21.8302 21.0472 19.5679 19.7999C18.762 19.3605 17.8639 19.063 16.9141 18.9575C16.6282 18.921 16.3384 18.9019 16.0467 18.9019H13.865" stroke="#010101" stroke-linecap="round" stroke-linejoin="round"/>
<path d="M17.657 8.58789V11.6734C17.657 14.8338 15.0953 17.3975 11.933 17.3975C8.7726 17.3975 6.20898 14.8358 6.20898 11.6734V8.58789" stroke="#010101" stroke-linecap="round" stroke-linejoin="round"/>
<path d="M9.77632 1.69385C5.0789 3.01979 4.56464 7.29313 4.52051 8.58837" stroke="#010101" stroke-linecap="round" stroke-linejoin="round"/>
<path d="M9.77832 4.08254V0.5" stroke="#010101" stroke-linecap="round" stroke-linejoin="round"/>
<path d="M19.3457 8.58837C19.3015 7.29313 18.7892 3.01979 14.0898 1.69385" stroke="#010101" stroke-linecap="round" stroke-linejoin="round"/>
<path d="M14.09 4.08254V0.5H9.77832" stroke="#010101" stroke-linecap="round" stroke-linejoin="round"/>
<path d="M17.6543 11.186H20.1392C20.2736 11.186 20.381 11.0786 20.381 10.9443V8.82391C20.381 8.69343 20.2755 8.58789 20.145 8.58789H3.72518C3.59086 8.58789 3.4834 8.69535 3.4834 8.82967V10.9443C3.4834 11.0786 3.59086 11.186 3.72518 11.186H6.20435" stroke="#010101" stroke-linecap="round" stroke-linejoin="round"/>
<path d="M13.8647 17.0596V19.7786C13.8647 20.8263 13.0799 21.7627 12.036 21.8184C10.923 21.876 10.0039 20.9933 10.0039 19.8938V17.0615" stroke="#010101" stroke-linecap="round" stroke-linejoin="round"/>
</svg>
