<svg width="28" height="29" viewBox="0 0 28 29" fill="none" xmlns="http://www.w3.org/2000/svg">
<path d="M21.3875 0.5H0.501953V21.3856H21.3875V0.5Z" stroke="#010101" stroke-linecap="round" stroke-linejoin="round"/>
<path d="M8.29638 0.501953L0.5 8.293" stroke="#010101" stroke-linecap="round" stroke-linejoin="round"/>
<path d="M7.80389 6.09424L0.5 13.3981" stroke="#010101" stroke-linecap="round" stroke-linejoin="round"/>
<path d="M13.395 0.501953L9.49414 4.40283" stroke="#010101" stroke-linecap="round" stroke-linejoin="round"/>
<path d="M18.4876 0.501953L0.5 18.4913" stroke="#010101" stroke-linecap="round" stroke-linejoin="round"/>
<path d="M6.68498 17.4077L2.71094 21.3835" stroke="#010101" stroke-linecap="round" stroke-linejoin="round"/>
<path d="M21.3871 2.70215L8.62988 15.463" stroke="#010101" stroke-linecap="round" stroke-linejoin="round"/>
<path d="M21.3872 7.80029L7.80371 21.3838" stroke="#010101" stroke-linecap="round" stroke-linejoin="round"/>
<path d="M17.6187 16.6689L12.9023 21.3835" stroke="#010101" stroke-linecap="round" stroke-linejoin="round"/>
<path d="M21.3873 12.9004L19.1299 15.1578" stroke="#010101" stroke-linecap="round" stroke-linejoin="round"/>
<path d="M27.3402 2.48992L25.6164 0.766113L23.8926 2.48992" stroke="#E43D30" stroke-linecap="round" stroke-linejoin="round"/>
<path d="M23.8926 19.396L25.6164 21.1198L27.3402 19.396" stroke="#E43D30" stroke-linecap="round" stroke-linejoin="round"/>
<path d="M25.6162 0.766113V19.3961V21.1199" stroke="#E43D30" stroke-linecap="round" stroke-linejoin="round"/>
<path d="M2.22381 24.0977L0.5 25.8215L2.22381 27.5471" stroke="#E43D30" stroke-linecap="round" stroke-linejoin="round"/>
<path d="M19.1299 27.5471L20.8537 25.8215L19.1299 24.0977" stroke="#E43D30" stroke-linecap="round" stroke-linejoin="round"/>
<path d="M0.5 25.8218H19.13H20.8538" stroke="#E43D30" stroke-linecap="round" stroke-linejoin="round"/>
</svg>
