<svg width="30" height="26" viewBox="0 0 30 26" fill="none" xmlns="http://www.w3.org/2000/svg">
<path d="M23.9886 14.9995L29.0452 17.4892L14.7698 24.5215L0.501953 17.4892L5.55107 14.9995" stroke="#010101" stroke-linecap="round" stroke-linejoin="round"/>
<path d="M5.55107 10.02L0.501953 12.5097L5.55107 14.9995L14.7698 19.542L23.9886 14.9995L29.0452 12.5097L23.9886 10.02" stroke="#E43D30" stroke-linecap="round" stroke-linejoin="round"/>
<path d="M14.7735 0.5L29.0452 7.53036L14.7735 14.5607L0.5 7.53036L14.7735 0.5Z" stroke="#010101" stroke-linecap="round" stroke-linejoin="round"/>
<path d="M3.79785 9.15528L7.59268 7.24939L11.1107 5.48285L14.6362 3.70879H14.6419L17.9339 2.05713" stroke="#010101" stroke-linecap="round" stroke-linejoin="round"/>
<path d="M7.42676 10.9409L11.2047 9.04061L14.7302 7.27219L18.2482 5.50378H18.2538L21.559 3.84082" stroke="#010101" stroke-linecap="round" stroke-linejoin="round"/>
<path d="M11.0508 12.7241L14.8174 10.8352H14.823L18.3486 9.06111L21.8666 7.29459L25.1774 5.62598H25.1831" stroke="#010101" stroke-linecap="round" stroke-linejoin="round"/>
<path d="M11.4531 2.13477L14.6359 3.7092H14.6416L18.2481 5.50399H18.2537L21.8659 7.29501L25.689 9.18395" stroke="#010101" stroke-linecap="round" stroke-linejoin="round"/>
<path d="M7.89551 3.88623L11.1103 5.48326L14.73 7.2724L18.3478 9.06153L22.1314 10.9354" stroke="#010101" stroke-linecap="round" stroke-linejoin="round"/>
<path d="M4.33789 5.64355L7.59221 7.25L11.2044 9.04102L14.8165 10.8358H14.8222L18.5681 12.6927" stroke="#010101" stroke-linecap="round" stroke-linejoin="round"/>
</svg>
