<svg width="51" height="51" viewBox="0 0 51 51" fill="none" xmlns="http://www.w3.org/2000/svg">
<path d="M0 0.00585938V2.36976L2.36388 0.00585938H0Z" fill="black"/>
<path d="M50.5094 0.00585938H48.1455L50.5094 2.3757V0.00585938Z" fill="black"/>
<path d="M48.1455 50.5148H50.5094V48.1509L48.1455 50.5148Z" fill="black"/>
<path d="M0 50.5148H2.36983L0 48.145V50.5148Z" fill="black"/>
<path d="M50.5089 2.3757L48.1451 0.00585938H41.0059L50.5089 9.50895V2.3757Z" fill="#C8C8C8"/>
<path d="M50.5089 41.0117L41.0117 50.5148H48.145L50.5089 48.1509V41.0117Z" fill="#C8C8C8"/>
<path d="M2.36388 0.00585938L0 2.36976V9.50302L9.49714 0.00585938H2.36388Z" fill="#C8C8C8"/>
<path d="M0 48.145L2.36983 50.5148H9.50309L0 41.0117V48.145Z" fill="#C8C8C8"/>
<path d="M50.5085 9.50895L41.0054 0.00585938H35.6064L50.5085 14.9138V9.50895Z" fill="black"/>
<path d="M9.49714 0.00585938L0 9.50302V14.9079L14.902 0.00585938H9.49714Z" fill="black"/>
<path d="M0 41.0118L9.50309 50.5149H14.908L0 35.6069V41.0118Z" fill="black"/>
<path d="M50.5085 35.6069L35.6064 50.5149H41.0113L50.5085 41.0118V35.6069Z" fill="black"/>
<path d="M50.5093 14.9138L35.6073 0.00585938H30.3271L50.5093 20.188V14.9138Z" fill="white"/>
<path d="M0 35.6067L14.908 50.5147H20.1822L0 30.3325V35.6067Z" fill="white"/>
<path d="M50.5093 30.3325L30.3271 50.5147H35.6073L50.5093 35.6067V30.3325Z" fill="white"/>
<path d="M14.902 0.00585938L0 14.9079V20.188L20.1822 0.00585938H14.902Z" fill="white"/>
<path d="M50.5093 20.188L30.3272 0.00585938H25.2549L50.5093 25.2603L25.2549 50.5148H30.3272L50.5093 30.3326V20.188Z" fill="#E43D30"/>
<path d="M0 30.3325L20.1822 50.5147H25.2544L0 25.2603V30.3325Z" fill="#E43D30"/>
<path d="M20.1822 0.00585938L0 20.188V25.2603L25.2544 0.00585938H20.1822Z" fill="#E43D30"/>
<path d="M25.2544 0.0059271L0.00585938 25.2544L25.2603 50.5089L50.5148 25.2544L25.2603 0L25.2544 0.0059271ZM4.67426 25.2604L25.2484 4.6862L45.8286 25.2663L25.2544 45.8465L4.67426 25.2663V25.2604Z" fill="white"/>
<path d="M25.2549 4.68024L4.68066 25.2544L25.2608 45.8346L45.835 25.2544L25.2549 4.67432V4.68024ZM25.2549 41.6591L8.85608 25.2604L25.2549 8.86161L41.6536 25.2604L25.2549 41.6591Z" fill="black"/>
<path d="M25.2542 8.85547L8.85547 25.2542L25.2542 41.653L41.653 25.2542L25.2542 8.85547ZM12.8705 25.2602L25.2542 12.8824L37.638 25.2661L25.2542 37.6498L12.8705 25.2661V25.2602Z" fill="white"/>
<path d="M25.2512 12.868L12.8701 25.249L25.2512 37.6301L37.6322 25.249L25.2512 12.868Z" fill="#53575A"/>
</svg>
