<svg width="51" height="51" viewBox="0 0 51 51" fill="none" xmlns="http://www.w3.org/2000/svg">
<path d="M50.5149 0H0V50.509H50.5149V0Z" fill="#E43D30"/>
<path d="M50.5152 50.5149V0C36.5678 0 25.2578 11.31 25.2578 25.2574C25.2578 39.2049 36.5678 50.5149 50.5152 50.5149Z" fill="#C8C8C8"/>
<path d="M50.5151 41.2362V9.27832C41.688 9.27832 34.5361 16.4302 34.5361 25.2573C34.5361 34.0843 41.688 41.2362 50.5151 41.2362Z" fill="black"/>
<path d="M0 0V50.5149C13.9474 50.5149 25.2575 39.2049 25.2575 25.2574C25.2575 11.31 13.9474 0 0 0Z" fill="#53575A"/>
<path d="M0 9.27832V41.2362C8.82704 41.2362 15.979 34.0843 15.979 25.2573C15.979 16.4302 8.82704 9.27832 0 9.27832Z" fill="white"/>
</svg>
