<svg width="51" height="51" viewBox="0 0 51 51" fill="none" xmlns="http://www.w3.org/2000/svg">
<path d="M50.5089 0H0V50.5089H50.5089V0Z" fill="black"/>
<path d="M12.6272 37.8818H0C0 44.8547 5.65434 50.5091 12.6272 50.5091V37.8818Z" fill="white"/>
<path d="M12.627 37.8818H25.2542C25.2542 44.8547 19.5998 50.5091 12.627 50.5091V37.8818Z" fill="#C8C8C8"/>
<path d="M12.627 37.8816H25.2542C25.2542 30.9087 19.5998 25.2544 12.627 25.2544V37.8816Z" fill="#53575A"/>
<path d="M12.6272 37.8816H0C0 30.9087 5.65434 25.2544 12.6272 25.2544V37.8816Z" fill="#E43D30"/>
<path d="M37.8818 12.6272H50.509C50.509 5.65434 44.8547 0 37.8818 0V12.6272Z" fill="#53575A"/>
<path d="M37.8821 12.6272H25.2549C25.2549 5.65434 30.9092 0 37.8821 0V12.6272Z" fill="#E43D30"/>
<path d="M37.8821 12.6274H25.2549C25.2549 19.6003 30.9092 25.2547 37.8821 25.2547V12.6274Z" fill="white"/>
<path d="M37.8818 12.6274H50.509C50.509 19.6003 44.8547 25.2547 37.8818 25.2547V12.6274Z" fill="#C8C8C8"/>
<path d="M37.8821 37.8818H25.2549C25.2549 44.8547 30.9092 50.5091 37.8821 50.5091V37.8818Z" fill="white"/>
<path d="M37.8818 37.8818H50.509C50.509 44.8547 44.8547 50.5091 37.8818 50.5091V37.8818Z" fill="#C8C8C8"/>
<path d="M37.8818 37.8816H50.509C50.509 30.9087 44.8547 25.2544 37.8818 25.2544V37.8816Z" fill="#53575A"/>
<path d="M37.8821 37.8816H25.2549C25.2549 30.9087 30.9092 25.2544 37.8821 25.2544V37.8816Z" fill="#E43D30"/>
<path d="M12.627 12.6272H25.2542C25.2542 5.65434 19.5998 0 12.627 0V12.6272Z" fill="#53575A"/>
<path d="M12.6272 12.6272H0C0 5.65434 5.65434 0 12.6272 0V12.6272Z" fill="#E43D30"/>
<path d="M12.6272 12.6274H0C0 19.6003 5.65434 25.2547 12.6272 25.2547V12.6274Z" fill="white"/>
<path d="M12.627 12.6274H25.2542C25.2542 19.6003 19.5998 25.2547 12.627 25.2547V12.6274Z" fill="#C8C8C8"/>
</svg>
