<svg width="40" height="40" viewBox="0 0 40 40" fill="none" xmlns="http://www.w3.org/2000/svg">
<path d="M39.2862 0H0V39.2862H39.2862V0Z" fill="black"/>
<path d="M19.6431 19.6436C8.79597 19.6436 0 28.4395 0 39.2867C10.8471 39.2867 19.6431 30.4907 19.6431 19.6436Z" fill="white"/>
<path d="M19.6431 19.6431C19.6431 8.79599 10.8471 0 0 0C0 10.8471 8.79597 19.6431 19.6431 19.6431Z" fill="white"/>
<path d="M39.2877 0C28.4405 0 19.6445 8.79599 19.6445 19.6431C30.4917 19.6431 39.2877 10.8471 39.2877 0Z" fill="white"/>
<path d="M19.6445 19.6436C19.6445 30.4907 28.4405 39.2867 39.2877 39.2867C39.2877 28.4395 30.4917 19.6436 19.6445 19.6436Z" fill="white"/>
</svg>
