<svg width="63" height="63" viewBox="0 0 63 63" fill="none" xmlns="http://www.w3.org/2000/svg">
<path d="M63.0035 0.00585938H31.4961V31.5133H63.0035V0.00585938Z" fill="black"/>
<path d="M35.4298 0.0033032L31.4922 3.94092L35.4298 7.87853L39.3674 3.94092L35.4298 0.0033032Z" fill="white"/>
<path d="M43.3087 0.00232663L39.3711 3.93994L43.3087 7.87756L47.2463 3.93994L43.3087 0.00232663Z" fill="#E43D30"/>
<path d="M51.1876 0.000861789L47.25 3.93848L51.1876 7.87609L55.1252 3.93848L51.1876 0.000861789Z" fill="white"/>
<path d="M59.0626 -0.000122866L55.125 3.9375L59.0626 7.87511L63.0002 3.93749L59.0626 -0.000122866Z" fill="#E43D30"/>
<path d="M35.4337 15.7597L31.4961 19.6973L35.4337 23.6349L39.3713 19.6973L35.4337 15.7597Z" fill="white"/>
<path d="M43.3087 15.765L39.3711 19.7026L43.3087 23.6403L47.2463 19.7026L43.3087 15.765Z" fill="#E43D30"/>
<path d="M51.1902 15.7585L47.25 19.6987L51.1876 23.6363L55.1279 19.6961L51.1902 15.7585Z" fill="white"/>
<path d="M59.0652 15.7575L55.125 19.6978L59.0626 23.6354L63.0029 19.6951L59.0652 15.7575Z" fill="#E43D30"/>
<path d="M35.4298 7.88172L31.4922 11.8193L35.4298 15.757L39.3674 11.8193L35.4298 7.88172Z" fill="#E43D30"/>
<path d="M43.3087 7.88026L39.3711 11.8179L43.3087 15.7555L47.2463 11.8179L43.3087 7.88026Z" fill="white"/>
<path d="M51.1876 7.87928L47.25 11.8169L51.1876 15.7545L55.1252 11.8169L51.1876 7.87928Z" fill="#E43D30"/>
<path d="M59.0626 7.8783L55.125 11.8159L59.0626 15.7535L63.0002 11.8159L59.0626 7.8783Z" fill="white"/>
<path d="M35.4337 23.6371L31.4961 27.5747L35.4337 31.5123L39.3713 27.5747L35.4337 23.6371Z" fill="#E43D30"/>
<path d="M43.3048 23.6386L39.3672 27.5762L43.3048 31.5138L47.2424 27.5762L43.3048 23.6386Z" fill="white"/>
<path d="M51.1876 23.6386L47.25 27.5762L51.1876 31.5138L55.1252 27.5762L51.1876 23.6386Z" fill="#E43D30"/>
<path d="M59.0626 23.6337L55.125 27.5713L59.0626 31.5089L63.0002 27.5713L59.0626 23.6337Z" fill="white"/>
<path d="M31.5074 0H0V31.5074H31.5074V0Z" fill="black"/>
<path d="M15.7537 15.7534C7.05433 15.7534 0 22.8078 0 31.5071C8.69936 31.5071 15.7537 24.4528 15.7537 15.7534Z" fill="white"/>
<path d="M15.7537 15.7537C15.7537 7.05435 8.69936 0 0 0C0 8.69936 7.05433 15.7537 15.7537 15.7537Z" fill="white"/>
<path d="M31.5076 0C22.8083 0 15.7539 7.05435 15.7539 15.7537C24.4533 15.7537 31.5076 8.69936 31.5076 0Z" fill="white"/>
<path d="M15.7539 15.7534C15.7539 24.4528 22.8083 31.5071 31.5076 31.5071C31.5076 22.8078 24.4533 15.7534 15.7539 15.7534Z" fill="white"/>
<path d="M62.9996 31.4927H31.4922V62.9964H62.9996V31.4927Z" fill="#E43D30"/>
<path d="M63.0037 63.0001V31.4927C54.3043 31.4927 47.25 38.547 47.25 47.2464C47.25 55.9457 54.3043 63.0001 63.0037 63.0001Z" fill="#C8C8C8"/>
<path d="M63.0016 57.2132V37.2803C57.496 37.2803 53.0352 41.7411 53.0352 47.2467C53.0352 52.7524 57.496 57.2132 63.0016 57.2132Z" fill="black"/>
<path d="M31.4922 31.4927V63.0001C40.1915 63.0001 47.2459 55.9457 47.2459 47.2464C47.2459 38.547 40.1915 31.4927 31.4922 31.4927Z" fill="#53575A"/>
<path d="M31.4922 37.2803V57.2132C36.9978 57.2132 41.4587 52.7524 41.4587 47.2467C41.4587 41.7411 36.9978 37.2803 31.4922 37.2803Z" fill="white"/>
</svg>
