<svg width="1560" height="112" viewBox="0 0 1560 112" fill="none" xmlns="http://www.w3.org/2000/svg">
<g opacity="0.02">
<path d="M757.911 -21.9053H691.375V44.6307H757.911V-21.9053Z" fill="#C8C8C8"/>
<path d="M757.903 11.355C739.532 11.355 724.635 26.252 724.635 44.623C743.006 44.623 757.903 29.7259 757.903 11.355Z" fill="black"/>
<path d="M757.903 11.3549C757.903 -7.01604 743.006 -21.9131 724.635 -21.9131C724.635 -3.54215 739.532 11.3549 757.903 11.3549Z" fill="black"/>
<path d="M724.635 -21.9053C706.264 -21.9053 691.367 -7.00822 691.367 11.3627C709.738 11.3627 724.635 -3.53434 724.635 -21.9053Z" fill="black"/>
<path d="M691.375 11.355C691.375 29.7259 706.272 44.623 724.643 44.623C724.643 26.252 709.746 11.355 691.375 11.355Z" fill="black"/>
<path d="M1622.95 -21.9053H1556.41V44.6307H1622.95V-21.9053Z" fill="#C8C8C8"/>
<path d="M1589.67 -21.9053C1571.3 -21.9053 1556.4 -7.00822 1556.4 11.3627C1574.78 11.3627 1589.67 -3.53434 1589.67 -21.9053Z" fill="black"/>
<path d="M1556.41 11.355C1556.41 29.7259 1571.31 44.623 1589.68 44.623C1589.68 26.252 1574.78 11.355 1556.41 11.355Z" fill="black"/>
<path d="M358.665 -21.9053H292.129V44.6307H358.665V-21.9053Z" fill="#C8C8C8"/>
<path d="M358.659 11.355C340.288 11.355 325.391 26.252 325.391 44.623C343.762 44.623 358.659 29.7259 358.659 11.355Z" fill="black"/>
<path d="M358.659 11.3549C358.659 -7.01604 343.762 -21.9131 325.391 -21.9131C325.391 -3.54215 340.288 11.3549 358.659 11.3549Z" fill="black"/>
<path d="M325.391 -21.9053C307.02 -21.9053 292.123 -7.00822 292.123 11.3627C310.494 11.3627 325.391 -3.53434 325.391 -21.9053Z" fill="black"/>
<path d="M292.129 11.355C292.129 29.7259 307.026 44.623 325.397 44.623C325.397 26.252 310.5 11.355 292.129 11.355Z" fill="black"/>
<path d="M1157.16 -21.9053H1090.62V44.6307H1157.16V-21.9053Z" fill="#C8C8C8"/>
<path d="M1157.15 11.355C1138.78 11.355 1123.88 26.252 1123.88 44.623C1142.25 44.623 1157.15 29.7259 1157.15 11.355Z" fill="black"/>
<path d="M1157.15 11.3549C1157.15 -7.01604 1142.25 -21.9131 1123.88 -21.9131C1123.88 -3.54215 1138.78 11.3549 1157.15 11.3549Z" fill="black"/>
<path d="M1123.88 -21.9053C1105.51 -21.9053 1090.62 -7.00822 1090.62 11.3627C1108.99 11.3627 1123.88 -3.53434 1123.88 -21.9053Z" fill="black"/>
<path d="M1090.62 11.355C1090.62 29.7259 1105.52 44.623 1123.89 44.623C1123.89 26.252 1108.99 11.355 1090.62 11.355Z" fill="black"/>
<path d="M757.911 44.6387H691.375V111.175H757.911V44.6387Z" fill="#C8C8C8"/>
<path d="M757.903 77.8987C739.532 77.8987 724.635 92.7957 724.635 111.167C743.006 111.167 757.903 96.2696 757.903 77.8987Z" fill="black"/>
<path d="M757.903 77.8986C757.903 59.5277 743.006 44.6306 724.635 44.6306C724.635 63.0016 739.532 77.8986 757.903 77.8986Z" fill="black"/>
<path d="M724.635 44.6387C706.264 44.6387 691.367 59.5357 691.367 77.9067C709.738 77.9067 724.635 63.0096 724.635 44.6387Z" fill="black"/>
<path d="M691.375 77.8987C691.375 96.2696 706.272 111.167 724.643 111.167C724.643 92.7957 709.746 77.8987 691.375 77.8987Z" fill="black"/>
<path d="M1622.95 44.6384H1556.41V111.174H1622.95V44.6384Z" fill="#C8C8C8"/>
<path d="M1589.67 44.6384C1571.3 44.6384 1556.4 59.5355 1556.4 77.9064C1574.78 77.9064 1589.67 63.0094 1589.67 44.6384Z" fill="black"/>
<path d="M1556.41 77.8987C1556.41 96.2696 1571.31 111.167 1589.68 111.167C1589.68 92.7957 1574.78 77.8987 1556.41 77.8987Z" fill="black"/>
<path d="M358.665 44.6387H292.129V111.175H358.665V44.6387Z" fill="#C8C8C8"/>
<path d="M358.659 77.8987C340.288 77.8987 325.391 92.7957 325.391 111.167C343.762 111.167 358.659 96.2696 358.659 77.8987Z" fill="black"/>
<path d="M358.659 77.8986C358.659 59.5277 343.762 44.6306 325.391 44.6306C325.391 63.0016 340.288 77.8986 358.659 77.8986Z" fill="black"/>
<path d="M325.391 44.6387C307.02 44.6387 292.123 59.5357 292.123 77.9067C310.494 77.9067 325.391 63.0096 325.391 44.6387Z" fill="black"/>
<path d="M292.129 77.8987C292.129 96.2696 307.026 111.167 325.397 111.167C325.397 92.7957 310.5 77.8987 292.129 77.8987Z" fill="black"/>
<path d="M1157.16 44.6384H1090.62V111.174H1157.16V44.6384Z" fill="#C8C8C8"/>
<path d="M1157.15 77.8987C1138.78 77.8987 1123.88 92.7957 1123.88 111.167C1142.25 111.167 1157.15 96.2696 1157.15 77.8987Z" fill="black"/>
<path d="M1157.15 77.8986C1157.15 59.5277 1142.25 44.6306 1123.88 44.6306C1123.88 63.0016 1138.78 77.8986 1157.15 77.8986Z" fill="black"/>
<path d="M1123.88 44.6384C1105.51 44.6384 1090.62 59.5355 1090.62 77.9064C1108.99 77.9064 1123.88 63.0094 1123.88 44.6384Z" fill="black"/>
<path d="M1090.62 77.8987C1090.62 96.2696 1105.52 111.167 1123.89 111.167C1123.89 92.7957 1108.99 77.8987 1090.62 77.8987Z" fill="black"/>
<path d="M159.042 -21.9053H92.5059V44.6307H159.042V-21.9053Z" fill="#C8C8C8"/>
<path d="M159.034 11.355C140.663 11.355 125.766 26.252 125.766 44.623C144.137 44.623 159.034 29.7259 159.034 11.355Z" fill="black"/>
<path d="M159.034 11.3549C159.034 -7.01604 144.137 -21.9131 125.766 -21.9131C125.766 -3.54215 140.663 11.3549 159.034 11.3549Z" fill="black"/>
<path d="M125.766 -21.9053C107.395 -21.9053 92.498 -7.00822 92.498 11.3627C110.869 11.3627 125.766 -3.53434 125.766 -21.9053Z" fill="black"/>
<path d="M92.5059 11.355C92.5059 29.7259 107.403 44.623 125.774 44.623C125.774 26.252 110.877 11.355 92.5059 11.355Z" fill="black"/>
<path d="M957.536 -21.9053H891V44.6307H957.536V-21.9053Z" fill="#C8C8C8"/>
<path d="M957.528 11.355C939.157 11.355 924.26 26.252 924.26 44.623C942.631 44.623 957.528 29.7259 957.528 11.355Z" fill="black"/>
<path d="M957.528 11.3549C957.528 -7.01604 942.631 -21.9131 924.26 -21.9131C924.26 -3.54215 939.157 11.3549 957.528 11.3549Z" fill="black"/>
<path d="M924.26 -21.9053C905.889 -21.9053 890.992 -7.00822 890.992 11.3627C909.363 11.3627 924.26 -3.53434 924.26 -21.9053Z" fill="black"/>
<path d="M891 11.355C891 29.7259 905.897 44.623 924.268 44.623C924.268 26.252 909.371 11.355 891 11.355Z" fill="black"/>
<path d="M558.288 -21.9053H491.752V44.6307H558.288V-21.9053Z" fill="#C8C8C8"/>
<path d="M558.28 11.355C539.909 11.355 525.012 26.252 525.012 44.623C543.383 44.623 558.28 29.7259 558.28 11.355Z" fill="black"/>
<path d="M558.28 11.3549C558.28 -7.01604 543.383 -21.9131 525.012 -21.9131C525.012 -3.54215 539.909 11.3549 558.28 11.3549Z" fill="black"/>
<path d="M525.012 -21.9053C506.641 -21.9053 491.744 -7.00822 491.744 11.3627C510.115 11.3627 525.012 -3.53434 525.012 -21.9053Z" fill="black"/>
<path d="M491.752 11.355C491.752 29.7259 506.649 44.623 525.02 44.623C525.02 26.252 510.123 11.355 491.752 11.355Z" fill="black"/>
<path d="M1356.78 -21.9053H1290.25V44.6307H1356.78V-21.9053Z" fill="#C8C8C8"/>
<path d="M1356.77 11.355C1338.4 11.355 1323.51 26.252 1323.51 44.623C1341.88 44.623 1356.77 29.7259 1356.77 11.355Z" fill="black"/>
<path d="M1356.77 11.3549C1356.77 -7.01604 1341.88 -21.9131 1323.51 -21.9131C1323.51 -3.54215 1338.4 11.3549 1356.77 11.3549Z" fill="black"/>
<path d="M1323.51 -21.9053C1305.14 -21.9053 1290.24 -7.00822 1290.24 11.3627C1308.61 11.3627 1323.51 -3.53434 1323.51 -21.9053Z" fill="black"/>
<path d="M1290.25 11.355C1290.25 29.7259 1305.14 44.623 1323.51 44.623C1323.51 26.252 1308.62 11.355 1290.25 11.355Z" fill="black"/>
<path d="M159.042 44.6387H92.5059V111.175H159.042V44.6387Z" fill="#C8C8C8"/>
<path d="M159.034 77.8987C140.663 77.8987 125.766 92.7957 125.766 111.167C144.137 111.167 159.034 96.2696 159.034 77.8987Z" fill="black"/>
<path d="M159.034 77.8986C159.034 59.5277 144.137 44.6306 125.766 44.6306C125.766 63.0016 140.663 77.8986 159.034 77.8986Z" fill="black"/>
<path d="M125.766 44.6387C107.395 44.6387 92.498 59.5357 92.498 77.9067C110.869 77.9067 125.766 63.0096 125.766 44.6387Z" fill="black"/>
<path d="M92.5059 77.8987C92.5059 96.2696 107.403 111.167 125.774 111.167C125.774 92.7957 110.877 77.8987 92.5059 77.8987Z" fill="black"/>
<path d="M957.536 44.6384H891V111.174H957.536V44.6384Z" fill="#C8C8C8"/>
<path d="M957.528 77.8987C939.157 77.8987 924.26 92.7957 924.26 111.167C942.631 111.167 957.528 96.2696 957.528 77.8987Z" fill="black"/>
<path d="M957.528 77.8986C957.528 59.5277 942.631 44.6306 924.26 44.6306C924.26 63.0016 939.157 77.8986 957.528 77.8986Z" fill="black"/>
<path d="M924.26 44.6384C905.889 44.6384 890.992 59.5355 890.992 77.9064C909.363 77.9064 924.26 63.0094 924.26 44.6384Z" fill="black"/>
<path d="M891 77.8987C891 96.2696 905.897 111.167 924.268 111.167C924.268 92.7957 909.371 77.8987 891 77.8987Z" fill="black"/>
<path d="M558.288 44.6387H491.752V111.175H558.288V44.6387Z" fill="#C8C8C8"/>
<path d="M558.28 77.8987C539.909 77.8987 525.012 92.7957 525.012 111.167C543.383 111.167 558.28 96.2696 558.28 77.8987Z" fill="black"/>
<path d="M558.28 77.8986C558.28 59.5277 543.383 44.6306 525.012 44.6306C525.012 63.0016 539.909 77.8986 558.28 77.8986Z" fill="black"/>
<path d="M525.012 44.6387C506.641 44.6387 491.744 59.5357 491.744 77.9067C510.115 77.9067 525.012 63.0096 525.012 44.6387Z" fill="black"/>
<path d="M491.752 77.8987C491.752 96.2696 506.649 111.167 525.02 111.167C525.02 92.7957 510.123 77.8987 491.752 77.8987Z" fill="black"/>
<path d="M1356.78 44.6384H1290.25V111.174H1356.78V44.6384Z" fill="#C8C8C8"/>
<path d="M1356.77 77.8987C1338.4 77.8987 1323.51 92.7957 1323.51 111.167C1341.88 111.167 1356.77 96.2696 1356.77 77.8987Z" fill="black"/>
<path d="M1356.77 77.8986C1356.77 59.5277 1341.88 44.6306 1323.51 44.6306C1323.51 63.0016 1338.4 77.8986 1356.77 77.8986Z" fill="black"/>
<path d="M1323.51 44.6384C1305.14 44.6384 1290.24 59.5355 1290.24 77.9064C1308.61 77.9064 1323.51 63.0094 1323.51 44.6384Z" fill="black"/>
<path d="M1290.25 77.8987C1290.25 96.2696 1305.14 111.167 1323.51 111.167C1323.51 92.7957 1308.62 77.8987 1290.25 77.8987Z" fill="black"/>
<path d="M25.9617 -21.9053H-40.5742V44.6307H25.9617V-21.9053Z" fill="#C8C8C8"/>
<path d="M25.9535 11.355C7.58258 11.355 -7.31445 26.252 -7.31445 44.623C11.0565 44.623 25.9535 29.7259 25.9535 11.355Z" fill="black"/>
<path d="M25.9535 11.3549C25.9535 -7.01604 11.0565 -21.9131 -7.31445 -21.9131C-7.31445 -3.54215 7.58258 11.3549 25.9535 11.3549Z" fill="black"/>
<path d="M824.454 -21.9053H757.918V44.6307H824.454V-21.9053Z" fill="#C8C8C8"/>
<path d="M824.448 11.355C806.077 11.355 791.18 26.252 791.18 44.623C809.551 44.623 824.448 29.7259 824.448 11.355Z" fill="black"/>
<path d="M824.448 11.3549C824.448 -7.01604 809.551 -21.9131 791.18 -21.9131C791.18 -3.54215 806.077 11.3549 824.448 11.3549Z" fill="black"/>
<path d="M791.18 -21.9053C772.809 -21.9053 757.912 -7.00822 757.912 11.3627C776.283 11.3627 791.18 -3.53434 791.18 -21.9053Z" fill="black"/>
<path d="M757.918 11.355C757.918 29.7259 772.815 44.623 791.186 44.623C791.186 26.252 776.289 11.355 757.918 11.355Z" fill="black"/>
<path d="M425.208 -21.9053H358.672V44.6307H425.208V-21.9053Z" fill="#C8C8C8"/>
<path d="M425.2 11.355C406.829 11.355 391.932 26.252 391.932 44.623C410.303 44.623 425.2 29.7259 425.2 11.355Z" fill="black"/>
<path d="M425.2 11.3549C425.2 -7.01604 410.303 -21.9131 391.932 -21.9131C391.932 -3.54215 406.829 11.3549 425.2 11.3549Z" fill="black"/>
<path d="M391.932 -21.9053C373.561 -21.9053 358.664 -7.00822 358.664 11.3627C377.035 11.3627 391.932 -3.53434 391.932 -21.9053Z" fill="black"/>
<path d="M358.672 11.355C358.672 29.7259 373.569 44.623 391.94 44.623C391.94 26.252 377.043 11.355 358.672 11.355Z" fill="black"/>
<path d="M1223.7 -21.9053H1157.17V44.6307H1223.7V-21.9053Z" fill="#C8C8C8"/>
<path d="M1223.69 11.355C1205.32 11.355 1190.43 26.252 1190.43 44.623C1208.8 44.623 1223.69 29.7259 1223.69 11.355Z" fill="black"/>
<path d="M1223.69 11.3549C1223.69 -7.01604 1208.8 -21.9131 1190.43 -21.9131C1190.43 -3.54215 1205.32 11.3549 1223.69 11.3549Z" fill="black"/>
<path d="M1190.43 -21.9053C1172.06 -21.9053 1157.16 -7.00822 1157.16 11.3627C1175.53 11.3627 1190.43 -3.53434 1190.43 -21.9053Z" fill="black"/>
<path d="M1157.17 11.355C1157.17 29.7259 1172.06 44.623 1190.43 44.623C1190.43 26.252 1175.54 11.355 1157.17 11.355Z" fill="black"/>
<path d="M25.9617 44.6384H-40.5742V111.174H25.9617V44.6384Z" fill="#C8C8C8"/>
<path d="M25.9535 77.8987C7.58258 77.8987 -7.31445 92.7957 -7.31445 111.167C11.0565 111.167 25.9535 96.2696 25.9535 77.8987Z" fill="black"/>
<path d="M25.9535 77.8986C25.9535 59.5277 11.0565 44.6306 -7.31445 44.6306C-7.31445 63.0016 7.58258 77.8986 25.9535 77.8986Z" fill="black"/>
<path d="M824.454 44.6384H757.918V111.174H824.454V44.6384Z" fill="#C8C8C8"/>
<path d="M824.448 77.8987C806.077 77.8987 791.18 92.7957 791.18 111.167C809.551 111.167 824.448 96.2696 824.448 77.8987Z" fill="black"/>
<path d="M824.448 77.8986C824.448 59.5277 809.551 44.6306 791.18 44.6306C791.18 63.0016 806.077 77.8986 824.448 77.8986Z" fill="black"/>
<path d="M791.18 44.6384C772.809 44.6384 757.912 59.5355 757.912 77.9064C776.283 77.9064 791.18 63.0094 791.18 44.6384Z" fill="black"/>
<path d="M757.918 77.8987C757.918 96.2696 772.815 111.167 791.186 111.167C791.186 92.7957 776.289 77.8987 757.918 77.8987Z" fill="black"/>
<path d="M425.208 44.6384H358.672V111.174H425.208V44.6384Z" fill="#C8C8C8"/>
<path d="M425.2 77.8987C406.829 77.8987 391.932 92.7957 391.932 111.167C410.303 111.167 425.2 96.2696 425.2 77.8987Z" fill="black"/>
<path d="M425.2 77.8986C425.2 59.5277 410.303 44.6306 391.932 44.6306C391.932 63.0016 406.829 77.8986 425.2 77.8986Z" fill="black"/>
<path d="M391.932 44.6384C373.561 44.6384 358.664 59.5355 358.664 77.9064C377.035 77.9064 391.932 63.0094 391.932 44.6384Z" fill="black"/>
<path d="M358.672 77.8987C358.672 96.2696 373.569 111.167 391.94 111.167C391.94 92.7957 377.043 77.8987 358.672 77.8987Z" fill="black"/>
<path d="M1223.7 44.6384H1157.17V111.174H1223.7V44.6384Z" fill="#C8C8C8"/>
<path d="M1223.69 77.8987C1205.32 77.8987 1190.43 92.7957 1190.43 111.167C1208.8 111.167 1223.69 96.2696 1223.69 77.8987Z" fill="black"/>
<path d="M1223.69 77.8986C1223.69 59.5277 1208.8 44.6306 1190.43 44.6306C1190.43 63.0016 1205.32 77.8986 1223.69 77.8986Z" fill="black"/>
<path d="M1190.43 44.6384C1172.06 44.6384 1157.16 59.5355 1157.16 77.9064C1175.53 77.9064 1190.43 63.0094 1190.43 44.6384Z" fill="black"/>
<path d="M1157.17 77.8987C1157.17 96.2696 1172.06 111.167 1190.43 111.167C1190.43 92.7957 1175.54 77.8987 1157.17 77.8987Z" fill="black"/>
<path d="M225.583 -21.9053H159.047V44.6307H225.583V-21.9053Z" fill="#C8C8C8"/>
<path d="M225.577 11.355C207.206 11.355 192.309 26.252 192.309 44.623C210.68 44.623 225.577 29.7259 225.577 11.355Z" fill="black"/>
<path d="M225.577 11.3549C225.577 -7.01604 210.68 -21.9131 192.309 -21.9131C192.309 -3.54215 207.206 11.3549 225.577 11.3549Z" fill="black"/>
<path d="M192.309 -21.9053C173.938 -21.9053 159.041 -7.00822 159.041 11.3627C177.412 11.3627 192.309 -3.53434 192.309 -21.9053Z" fill="black"/>
<path d="M159.047 11.355C159.047 29.7259 173.944 44.623 192.315 44.623C192.315 26.252 177.418 11.355 159.047 11.355Z" fill="black"/>
<path d="M1024.08 -21.9053H957.543V44.6307H1024.08V-21.9053Z" fill="#C8C8C8"/>
<path d="M1024.07 11.355C1005.7 11.355 990.803 26.252 990.803 44.623C1009.17 44.623 1024.07 29.7259 1024.07 11.355Z" fill="black"/>
<path d="M1024.07 11.3549C1024.07 -7.01604 1009.17 -21.9131 990.803 -21.9131C990.803 -3.54215 1005.7 11.3549 1024.07 11.3549Z" fill="black"/>
<path d="M990.803 -21.9053C972.432 -21.9053 957.535 -7.00822 957.535 11.3627C975.906 11.3627 990.803 -3.53434 990.803 -21.9053Z" fill="black"/>
<path d="M957.543 11.355C957.543 29.7259 972.44 44.623 990.811 44.623C990.811 26.252 975.914 11.355 957.543 11.355Z" fill="black"/>
<path d="M624.831 -21.9053H558.295V44.6307H624.831V-21.9053Z" fill="#C8C8C8"/>
<path d="M624.823 11.355C606.452 11.355 591.555 26.252 591.555 44.623C609.926 44.623 624.823 29.7259 624.823 11.355Z" fill="black"/>
<path d="M624.823 11.3549C624.823 -7.01604 609.926 -21.9131 591.555 -21.9131C591.555 -3.54215 606.452 11.3549 624.823 11.3549Z" fill="black"/>
<path d="M591.555 -21.9053C573.184 -21.9053 558.287 -7.00822 558.287 11.3627C576.658 11.3627 591.555 -3.53434 591.555 -21.9053Z" fill="black"/>
<path d="M558.295 11.355C558.295 29.7259 573.192 44.623 591.563 44.623C591.563 26.252 576.666 11.355 558.295 11.355Z" fill="black"/>
<path d="M1423.32 -21.9053H1356.79V44.6307H1423.32V-21.9053Z" fill="#C8C8C8"/>
<path d="M1423.32 11.355C1404.95 11.355 1390.05 26.252 1390.05 44.623C1408.42 44.623 1423.32 29.7259 1423.32 11.355Z" fill="black"/>
<path d="M1423.32 11.3549C1423.32 -7.01604 1408.42 -21.9131 1390.05 -21.9131C1390.05 -3.54215 1404.95 11.3549 1423.32 11.3549Z" fill="black"/>
<path d="M1390.05 -21.9053C1371.68 -21.9053 1356.78 -7.00822 1356.78 11.3627C1375.15 11.3627 1390.05 -3.53434 1390.05 -21.9053Z" fill="black"/>
<path d="M1356.79 11.355C1356.79 29.7259 1371.68 44.623 1390.06 44.623C1390.06 26.252 1375.16 11.355 1356.79 11.355Z" fill="black"/>
<path d="M225.583 44.6387H159.047V111.175H225.583V44.6387Z" fill="#C8C8C8"/>
<path d="M225.577 77.8987C207.206 77.8987 192.309 92.7957 192.309 111.167C210.68 111.167 225.577 96.2696 225.577 77.8987Z" fill="black"/>
<path d="M225.577 77.8986C225.577 59.5277 210.68 44.6306 192.309 44.6306C192.309 63.0016 207.206 77.8986 225.577 77.8986Z" fill="black"/>
<path d="M192.309 44.6387C173.938 44.6387 159.041 59.5357 159.041 77.9067C177.412 77.9067 192.309 63.0096 192.309 44.6387Z" fill="black"/>
<path d="M159.047 77.8987C159.047 96.2696 173.944 111.167 192.315 111.167C192.315 92.7957 177.418 77.8987 159.047 77.8987Z" fill="black"/>
<path d="M1024.08 44.6384H957.543V111.174H1024.08V44.6384Z" fill="#C8C8C8"/>
<path d="M1024.07 77.8987C1005.7 77.8987 990.803 92.7957 990.803 111.167C1009.17 111.167 1024.07 96.2696 1024.07 77.8987Z" fill="black"/>
<path d="M1024.07 77.8986C1024.07 59.5277 1009.17 44.6306 990.803 44.6306C990.803 63.0016 1005.7 77.8986 1024.07 77.8986Z" fill="black"/>
<path d="M990.803 44.6384C972.432 44.6384 957.535 59.5355 957.535 77.9064C975.906 77.9064 990.803 63.0094 990.803 44.6384Z" fill="black"/>
<path d="M957.543 77.8987C957.543 96.2696 972.44 111.167 990.811 111.167C990.811 92.7957 975.914 77.8987 957.543 77.8987Z" fill="black"/>
<path d="M624.831 44.6384H558.295V111.174H624.831V44.6384Z" fill="#C8C8C8"/>
<path d="M624.823 77.8987C606.452 77.8987 591.555 92.7957 591.555 111.167C609.926 111.167 624.823 96.2696 624.823 77.8987Z" fill="black"/>
<path d="M624.823 77.8986C624.823 59.5277 609.926 44.6306 591.555 44.6306C591.555 63.0016 606.452 77.8986 624.823 77.8986Z" fill="black"/>
<path d="M591.555 44.6384C573.184 44.6384 558.287 59.5355 558.287 77.9064C576.658 77.9064 591.555 63.0094 591.555 44.6384Z" fill="black"/>
<path d="M558.295 77.8987C558.295 96.2696 573.192 111.167 591.563 111.167C591.563 92.7957 576.666 77.8987 558.295 77.8987Z" fill="black"/>
<path d="M1423.32 44.6387H1356.79V111.175H1423.32V44.6387Z" fill="#C8C8C8"/>
<path d="M1423.32 77.8987C1404.95 77.8987 1390.05 92.7957 1390.05 111.167C1408.42 111.167 1423.32 96.2696 1423.32 77.8987Z" fill="black"/>
<path d="M1423.32 77.8986C1423.32 59.5277 1408.42 44.6306 1390.05 44.6306C1390.05 63.0016 1404.95 77.8986 1423.32 77.8986Z" fill="black"/>
<path d="M1390.05 44.6387C1371.68 44.6387 1356.78 59.5357 1356.78 77.9067C1375.15 77.9067 1390.05 63.0096 1390.05 44.6387Z" fill="black"/>
<path d="M1356.79 77.8987C1356.79 96.2696 1371.68 111.167 1390.06 111.167C1390.06 92.7957 1375.16 77.8987 1356.79 77.8987Z" fill="black"/>
<path d="M92.4988 -21.9053H25.9629V44.6307H92.4988V-21.9053Z" fill="#C8C8C8"/>
<path d="M92.4906 11.355C74.1197 11.355 59.2227 26.252 59.2227 44.623C77.5936 44.623 92.4906 29.7259 92.4906 11.355Z" fill="black"/>
<path d="M92.4906 11.3549C92.4906 -7.01604 77.5936 -21.9131 59.2227 -21.9131C59.2227 -3.54215 74.1197 11.3549 92.4906 11.3549Z" fill="black"/>
<path d="M59.2231 -21.9053C40.8521 -21.9053 25.9551 -7.00822 25.9551 11.3627C44.326 11.3627 59.2231 -3.53434 59.2231 -21.9053Z" fill="black"/>
<path d="M25.9629 11.355C25.9629 29.7259 40.8599 44.623 59.2309 44.623C59.2309 26.252 44.3338 11.355 25.9629 11.355Z" fill="black"/>
<path d="M890.991 -21.9053H824.455V44.6307H890.991V-21.9053Z" fill="#C8C8C8"/>
<path d="M890.983 11.355C872.612 11.355 857.715 26.252 857.715 44.623C876.086 44.623 890.983 29.7259 890.983 11.355Z" fill="black"/>
<path d="M890.983 11.3549C890.983 -7.01604 876.086 -21.9131 857.715 -21.9131C857.715 -3.54215 872.612 11.3549 890.983 11.3549Z" fill="black"/>
<path d="M857.715 -21.9053C839.344 -21.9053 824.447 -7.00822 824.447 11.3627C842.818 11.3627 857.715 -3.53434 857.715 -21.9053Z" fill="black"/>
<path d="M824.455 11.355C824.455 29.7259 839.352 44.623 857.723 44.623C857.723 26.252 842.826 11.355 824.455 11.355Z" fill="black"/>
<path d="M491.745 -21.9053H425.209V44.6307H491.745V-21.9053Z" fill="#C8C8C8"/>
<path d="M491.737 11.355C473.366 11.355 458.469 26.252 458.469 44.623C476.84 44.623 491.737 29.7259 491.737 11.355Z" fill="black"/>
<path d="M491.737 11.3549C491.737 -7.01604 476.84 -21.9131 458.469 -21.9131C458.469 -3.54215 473.366 11.3549 491.737 11.3549Z" fill="black"/>
<path d="M458.469 -21.9053C440.098 -21.9053 425.201 -7.00822 425.201 11.3627C443.572 11.3627 458.469 -3.53434 458.469 -21.9053Z" fill="black"/>
<path d="M425.209 11.355C425.209 29.7259 440.106 44.623 458.477 44.623C458.477 26.252 443.58 11.355 425.209 11.355Z" fill="black"/>
<path d="M1290.24 -21.9053H1223.7V44.6307H1290.24V-21.9053Z" fill="#C8C8C8"/>
<path d="M1290.23 11.355C1271.86 11.355 1256.96 26.252 1256.96 44.623C1275.33 44.623 1290.23 29.7259 1290.23 11.355Z" fill="black"/>
<path d="M1290.23 11.3549C1290.23 -7.01604 1275.33 -21.9131 1256.96 -21.9131C1256.96 -3.54215 1271.86 11.3549 1290.23 11.3549Z" fill="black"/>
<path d="M1256.96 -21.9053C1238.59 -21.9053 1223.69 -7.00822 1223.69 11.3627C1242.06 11.3627 1256.96 -3.53434 1256.96 -21.9053Z" fill="black"/>
<path d="M1223.7 11.355C1223.7 29.7259 1238.6 44.623 1256.97 44.623C1256.97 26.252 1242.07 11.355 1223.7 11.355Z" fill="black"/>
<path d="M92.4988 44.6387H25.9629V111.175H92.4988V44.6387Z" fill="#C8C8C8"/>
<path d="M92.4906 77.8987C74.1197 77.8987 59.2227 92.7957 59.2227 111.167C77.5936 111.167 92.4906 96.2696 92.4906 77.8987Z" fill="black"/>
<path d="M92.4906 77.8986C92.4906 59.5277 77.5936 44.6306 59.2227 44.6306C59.2227 63.0016 74.1197 77.8986 92.4906 77.8986Z" fill="black"/>
<path d="M59.2231 44.6387C40.8521 44.6387 25.9551 59.5357 25.9551 77.9067C44.326 77.9067 59.2231 63.0096 59.2231 44.6387Z" fill="black"/>
<path d="M25.9629 77.8987C25.9629 96.2696 40.8599 111.167 59.2309 111.167C59.2309 92.7957 44.3338 77.8987 25.9629 77.8987Z" fill="black"/>
<path d="M890.991 44.6387H824.455V111.175H890.991V44.6387Z" fill="#C8C8C8"/>
<path d="M890.983 77.8987C872.612 77.8987 857.715 92.7957 857.715 111.167C876.086 111.167 890.983 96.2696 890.983 77.8987Z" fill="black"/>
<path d="M890.983 77.8986C890.983 59.5277 876.086 44.6306 857.715 44.6306C857.715 63.0016 872.612 77.8986 890.983 77.8986Z" fill="black"/>
<path d="M857.715 44.6384C839.344 44.6384 824.447 59.5355 824.447 77.9064C842.818 77.9064 857.715 63.0094 857.715 44.6384Z" fill="black"/>
<path d="M824.455 77.8987C824.455 96.2696 839.352 111.167 857.723 111.167C857.723 92.7957 842.826 77.8987 824.455 77.8987Z" fill="black"/>
<path d="M491.745 44.6384H425.209V111.174H491.745V44.6384Z" fill="#C8C8C8"/>
<path d="M491.737 77.8987C473.366 77.8987 458.469 92.7957 458.469 111.167C476.84 111.167 491.737 96.2696 491.737 77.8987Z" fill="black"/>
<path d="M491.737 77.8986C491.737 59.5277 476.84 44.6306 458.469 44.6306C458.469 63.0016 473.366 77.8986 491.737 77.8986Z" fill="black"/>
<path d="M458.469 44.6387C440.098 44.6387 425.201 59.5357 425.201 77.9067C443.572 77.9067 458.469 63.0096 458.469 44.6387Z" fill="black"/>
<path d="M425.209 77.8987C425.209 96.2696 440.106 111.167 458.477 111.167C458.477 92.7957 443.58 77.8987 425.209 77.8987Z" fill="black"/>
<path d="M1290.24 44.6387H1223.7V111.175H1290.24V44.6387Z" fill="#C8C8C8"/>
<path d="M1290.23 77.8987C1271.86 77.8987 1256.96 92.7957 1256.96 111.167C1275.33 111.167 1290.23 96.2696 1290.23 77.8987Z" fill="black"/>
<path d="M1290.23 77.8986C1290.23 59.5277 1275.33 44.6306 1256.96 44.6306C1256.96 63.0016 1271.86 77.8986 1290.23 77.8986Z" fill="black"/>
<path d="M1256.96 44.6387C1238.59 44.6387 1223.69 59.5357 1223.69 77.9067C1242.06 77.9067 1256.96 63.0096 1256.96 44.6387Z" fill="black"/>
<path d="M1223.7 77.8987C1223.7 96.2696 1238.6 111.167 1256.97 111.167C1256.97 92.7957 1242.07 77.8987 1223.7 77.8987Z" fill="black"/>
<path d="M292.122 -21.9053H225.586V44.6307H292.122V-21.9053Z" fill="#C8C8C8"/>
<path d="M292.114 11.355C273.743 11.355 258.846 26.252 258.846 44.623C277.217 44.623 292.114 29.7259 292.114 11.355Z" fill="black"/>
<path d="M292.114 11.3549C292.114 -7.01604 277.217 -21.9131 258.846 -21.9131C258.846 -3.54215 273.743 11.3549 292.114 11.3549Z" fill="black"/>
<path d="M258.846 -21.9053C240.475 -21.9053 225.578 -7.00822 225.578 11.3627C243.949 11.3627 258.846 -3.53434 258.846 -21.9053Z" fill="black"/>
<path d="M225.586 11.355C225.586 29.7259 240.483 44.623 258.854 44.623C258.854 26.252 243.957 11.355 225.586 11.355Z" fill="black"/>
<path d="M1090.61 -21.9053H1024.08V44.6307H1090.61V-21.9053Z" fill="#C8C8C8"/>
<path d="M1090.61 11.355C1072.23 11.355 1057.34 26.252 1057.34 44.623C1075.71 44.623 1090.61 29.7259 1090.61 11.355Z" fill="black"/>
<path d="M1090.61 11.3549C1090.61 -7.01604 1075.71 -21.9131 1057.34 -21.9131C1057.34 -3.54215 1072.23 11.3549 1090.61 11.3549Z" fill="black"/>
<path d="M1057.34 -21.9053C1038.97 -21.9053 1024.07 -7.00822 1024.07 11.3627C1042.44 11.3627 1057.34 -3.53434 1057.34 -21.9053Z" fill="black"/>
<path d="M1024.08 11.355C1024.08 29.7259 1038.98 44.623 1057.35 44.623C1057.35 26.252 1042.45 11.355 1024.08 11.355Z" fill="black"/>
<path d="M691.368 -21.9053H624.832V44.6307H691.368V-21.9053Z" fill="#C8C8C8"/>
<path d="M691.36 11.355C672.989 11.355 658.092 26.252 658.092 44.623C676.463 44.623 691.36 29.7259 691.36 11.355Z" fill="black"/>
<path d="M691.36 11.3549C691.36 -7.01604 676.463 -21.9131 658.092 -21.9131C658.092 -3.54215 672.989 11.3549 691.36 11.3549Z" fill="black"/>
<path d="M658.092 -21.9053C639.721 -21.9053 624.824 -7.00822 624.824 11.3627C643.195 11.3627 658.092 -3.53434 658.092 -21.9053Z" fill="black"/>
<path d="M624.832 11.355C624.832 29.7259 639.729 44.623 658.1 44.623C658.1 26.252 643.203 11.355 624.832 11.355Z" fill="black"/>
<path d="M1556.4 -21.9053H1489.87V44.6307H1556.4V-21.9053Z" fill="#C8C8C8"/>
<path d="M1556.39 11.355C1538.02 11.355 1523.13 26.252 1523.13 44.623C1541.5 44.623 1556.39 29.7259 1556.39 11.355Z" fill="black"/>
<path d="M1556.39 11.3549C1556.39 -7.01604 1541.5 -21.9131 1523.13 -21.9131C1523.13 -3.54215 1538.02 11.3549 1556.39 11.3549Z" fill="black"/>
<path d="M1523.13 -21.9053C1504.76 -21.9053 1489.86 -7.00822 1489.86 11.3627C1508.23 11.3627 1523.13 -3.53434 1523.13 -21.9053Z" fill="black"/>
<path d="M1489.87 11.355C1489.87 29.7259 1504.76 44.623 1523.14 44.623C1523.14 26.252 1508.24 11.355 1489.87 11.355Z" fill="black"/>
<path d="M1489.86 -21.9053H1423.32V44.6307H1489.86V-21.9053Z" fill="#C8C8C8"/>
<path d="M1489.85 11.355C1471.48 11.355 1456.58 26.252 1456.58 44.623C1474.95 44.623 1489.85 29.7259 1489.85 11.355Z" fill="black"/>
<path d="M1489.85 11.3549C1489.85 -7.01604 1474.95 -21.9131 1456.58 -21.9131C1456.58 -3.54215 1471.48 11.3549 1489.85 11.3549Z" fill="black"/>
<path d="M1456.58 -21.9053C1438.21 -21.9053 1423.32 -7.00822 1423.32 11.3627C1441.69 11.3627 1456.58 -3.53434 1456.58 -21.9053Z" fill="black"/>
<path d="M1423.32 11.355C1423.32 29.7259 1438.22 44.623 1456.59 44.623C1456.59 26.252 1441.7 11.355 1423.32 11.355Z" fill="black"/>
<path d="M292.122 44.6387H225.586V111.175H292.122V44.6387Z" fill="#C8C8C8"/>
<path d="M292.114 77.8987C273.743 77.8987 258.846 92.7957 258.846 111.167C277.217 111.167 292.114 96.2696 292.114 77.8987Z" fill="black"/>
<path d="M292.114 77.8986C292.114 59.5277 277.217 44.6306 258.846 44.6306C258.846 63.0016 273.743 77.8986 292.114 77.8986Z" fill="black"/>
<path d="M258.846 44.6387C240.475 44.6387 225.578 59.5357 225.578 77.9067C243.949 77.9067 258.846 63.0096 258.846 44.6387Z" fill="black"/>
<path d="M225.586 77.8987C225.586 96.2696 240.483 111.167 258.854 111.167C258.854 92.7957 243.957 77.8987 225.586 77.8987Z" fill="black"/>
<path d="M1090.61 44.6387H1024.08V111.175H1090.61V44.6387Z" fill="#C8C8C8"/>
<path d="M1090.61 77.8987C1072.23 77.8987 1057.34 92.7957 1057.34 111.167C1075.71 111.167 1090.61 96.2696 1090.61 77.8987Z" fill="black"/>
<path d="M1090.61 77.8986C1090.61 59.5277 1075.71 44.6306 1057.34 44.6306C1057.34 63.0016 1072.23 77.8986 1090.61 77.8986Z" fill="black"/>
<path d="M1057.34 44.6387C1038.97 44.6387 1024.07 59.5357 1024.07 77.9067C1042.44 77.9067 1057.34 63.0096 1057.34 44.6387Z" fill="black"/>
<path d="M1024.08 77.8987C1024.08 96.2696 1038.98 111.167 1057.35 111.167C1057.35 92.7957 1042.45 77.8987 1024.08 77.8987Z" fill="black"/>
<path d="M691.368 44.6387H624.832V111.175H691.368V44.6387Z" fill="#C8C8C8"/>
<path d="M691.36 77.8987C672.989 77.8987 658.092 92.7957 658.092 111.167C676.463 111.167 691.36 96.2696 691.36 77.8987Z" fill="black"/>
<path d="M691.36 77.8986C691.36 59.5277 676.463 44.6306 658.092 44.6306C658.092 63.0016 672.989 77.8986 691.36 77.8986Z" fill="black"/>
<path d="M658.092 44.6387C639.721 44.6387 624.824 59.5357 624.824 77.9067C643.195 77.9067 658.092 63.0096 658.092 44.6387Z" fill="black"/>
<path d="M624.832 77.8987C624.832 96.2696 639.729 111.167 658.1 111.167C658.1 92.7957 643.203 77.8987 624.832 77.8987Z" fill="black"/>
<path d="M1556.4 44.6384H1489.87V111.174H1556.4V44.6384Z" fill="#C8C8C8"/>
<path d="M1556.39 77.8987C1538.02 77.8987 1523.13 92.7957 1523.13 111.167C1541.5 111.167 1556.39 96.2696 1556.39 77.8987Z" fill="black"/>
<path d="M1556.39 77.8986C1556.39 59.5277 1541.5 44.6306 1523.13 44.6306C1523.13 63.0016 1538.02 77.8986 1556.39 77.8986Z" fill="black"/>
<path d="M1523.13 44.6384C1504.76 44.6384 1489.86 59.5355 1489.86 77.9064C1508.23 77.9064 1523.13 63.0094 1523.13 44.6384Z" fill="black"/>
<path d="M1489.87 77.8987C1489.87 96.2696 1504.76 111.167 1523.14 111.167C1523.14 92.7957 1508.24 77.8987 1489.87 77.8987Z" fill="black"/>
<path d="M1489.86 44.6384H1423.32V111.174H1489.86V44.6384Z" fill="#C8C8C8"/>
<path d="M1489.85 77.8987C1471.48 77.8987 1456.58 92.7957 1456.58 111.167C1474.95 111.167 1489.85 96.2696 1489.85 77.8987Z" fill="black"/>
<path d="M1489.85 77.8986C1489.85 59.5277 1474.95 44.6306 1456.58 44.6306C1456.58 63.0016 1471.48 77.8986 1489.85 77.8986Z" fill="black"/>
<path d="M1456.58 44.6387C1438.21 44.6387 1423.32 59.5357 1423.32 77.9067C1441.69 77.9067 1456.58 63.0096 1456.58 44.6387Z" fill="black"/>
<path d="M1423.32 77.8987C1423.32 96.2696 1438.22 111.167 1456.59 111.167C1456.59 92.7957 1441.7 77.8987 1423.32 77.8987Z" fill="black"/>
</g>
</svg>
