<svg width="101" height="101" viewBox="0 0 101 101" fill="none" xmlns="http://www.w3.org/2000/svg">
<path d="M50.5148 50.491H0.00585938V101H50.5148V50.491Z" fill="#C8C8C8"/>
<path d="M50.5093 75.7395C36.5635 75.7395 25.2549 87.0482 25.2549 100.994C39.2007 100.994 50.5093 89.6853 50.5093 75.7395Z" fill="black"/>
<path d="M50.5093 75.7396C50.5093 61.7938 39.2007 50.4851 25.2549 50.4851C25.2549 64.4309 36.5635 75.7396 50.5093 75.7396Z" fill="black"/>
<path d="M25.2545 50.491C11.3087 50.491 0 61.7996 0 75.7454C13.9458 75.7454 25.2545 64.4367 25.2545 50.491Z" fill="black"/>
<path d="M0.00585938 75.7395C0.00585938 89.6853 11.3145 100.994 25.2603 100.994C25.2603 87.0482 13.9516 75.7395 0.00585938 75.7395Z" fill="black"/>
<path d="M50.4854 0.00585938V2.36976L52.8492 0.00585938H50.4854Z" fill="black"/>
<path d="M100.995 0.00585938H98.6309L100.995 2.3757V0.00585938Z" fill="black"/>
<path d="M98.6309 50.5148H100.995V48.1509L98.6309 50.5148Z" fill="black"/>
<path d="M50.4854 50.5148H52.8552L50.4854 48.145V50.5148Z" fill="black"/>
<path d="M100.994 2.3757L98.6304 0.00585938H91.4912L100.994 9.50895V2.3757Z" fill="#C8C8C8"/>
<path d="M100.994 41.0117L91.4971 50.5148H98.6303L100.994 48.1509V41.0117Z" fill="#C8C8C8"/>
<path d="M52.8492 0.00585938L50.4854 2.36976V9.50302L59.9825 0.00585938H52.8492Z" fill="#C8C8C8"/>
<path d="M50.4854 48.145L52.8552 50.5148H59.9884L50.4854 41.0117V48.145Z" fill="#C8C8C8"/>
<path d="M100.994 9.50895L91.4907 0.00585938H86.0918L100.994 14.9138V9.50895Z" fill="black"/>
<path d="M59.9825 0.00585938L50.4854 9.50302V14.9079L65.3874 0.00585938H59.9825Z" fill="black"/>
<path d="M50.4854 41.0118L59.9884 50.5149H65.3933L50.4854 35.6069V41.0118Z" fill="black"/>
<path d="M100.994 35.6069L86.0918 50.5149H91.4967L100.994 41.0118V35.6069Z" fill="black"/>
<path d="M100.995 14.9138L86.0926 0.00585938H80.8125L100.995 20.188V14.9138Z" fill="white"/>
<path d="M50.4854 35.6067L65.3933 50.5147H70.6675L50.4854 30.3325V35.6067Z" fill="white"/>
<path d="M100.995 30.3325L80.8125 50.5147H86.0926L100.995 35.6067V30.3325Z" fill="white"/>
<path d="M65.3874 0.00585938L50.4854 14.9079V20.188L70.6675 0.00585938H65.3874Z" fill="white"/>
<path d="M100.995 20.188L80.8125 0.00585938H75.7402L100.995 25.2603L75.7402 50.5148H80.8125L100.995 30.3326V20.188Z" fill="#E43D30"/>
<path d="M50.4854 30.3328L70.6675 50.5149H75.7398L50.4854 25.2605V30.3328Z" fill="#E43D30"/>
<path d="M70.6675 0.00585938L50.4854 20.188V25.2603L75.7398 0.00585938H70.6675Z" fill="#E43D30"/>
<path d="M75.7397 0.0059271L50.4912 25.2544L75.7457 50.5089L101 25.2544L75.7457 0L75.7397 0.0059271ZM55.1596 25.2604L75.7338 4.6862L96.3139 25.2663L75.7397 45.8465L55.1596 25.2663V25.2604Z" fill="white"/>
<path d="M75.7402 4.68024L55.166 25.2544L75.7462 45.8346L96.3203 25.2544L75.7402 4.67432V4.68024ZM75.7402 41.6591L59.3414 25.2604L75.7402 8.86161L92.139 25.2604L75.7402 41.6591Z" fill="black"/>
<path d="M75.7396 8.85571L59.3408 25.2545L75.7396 41.6532L92.1384 25.2545L75.7396 8.85571ZM63.3559 25.2604L75.7396 12.8826L88.1233 25.2663L75.7396 37.6501L63.3559 25.2663V25.2604Z" fill="white"/>
<path d="M75.7365 12.868L63.3555 25.249L75.7365 37.6301L88.1175 25.249L75.7365 12.868Z" fill="#53575A"/>
<path d="M100.994 50.4851H50.4854V100.994H100.994V50.4851Z" fill="black"/>
<path d="M63.1126 88.3667H50.4854C50.4854 95.3396 56.1397 100.994 63.1126 100.994V88.3667Z" fill="white"/>
<path d="M63.1123 88.3667H75.7395C75.7395 95.3396 70.0852 100.994 63.1123 100.994V88.3667Z" fill="#C8C8C8"/>
<path d="M63.1123 88.3667H75.7395C75.7395 81.3938 70.0852 75.7395 63.1123 75.7395V88.3667Z" fill="#53575A"/>
<path d="M63.1126 88.3667H50.4854C50.4854 81.3938 56.1397 75.7395 63.1126 75.7395V88.3667Z" fill="#E43D30"/>
<path d="M88.3672 63.1123H100.994C100.994 56.1395 95.3401 50.4851 88.3672 50.4851V63.1123Z" fill="#53575A"/>
<path d="M88.3675 63.1123H75.7402C75.7402 56.1395 81.3946 50.4851 88.3675 50.4851V63.1123Z" fill="#E43D30"/>
<path d="M88.3675 63.1123H75.7402C75.7402 70.0852 81.3946 75.7395 88.3675 75.7395V63.1123Z" fill="white"/>
<path d="M88.3672 63.1123H100.994C100.994 70.0852 95.3401 75.7395 88.3672 75.7395V63.1123Z" fill="#C8C8C8"/>
<path d="M88.3675 88.3667H75.7402C75.7402 95.3396 81.3946 100.994 88.3675 100.994V88.3667Z" fill="white"/>
<path d="M88.3672 88.3667H100.994C100.994 95.3396 95.3401 100.994 88.3672 100.994V88.3667Z" fill="#C8C8C8"/>
<path d="M88.3672 88.3667H100.994C100.994 81.3938 95.3401 75.7395 88.3672 75.7395V88.3667Z" fill="#53575A"/>
<path d="M88.3675 88.3667H75.7402C75.7402 81.3938 81.3946 75.7395 88.3675 75.7395V88.3667Z" fill="#E43D30"/>
<path d="M63.1123 63.1123H75.7395C75.7395 56.1395 70.0852 50.4851 63.1123 50.4851V63.1123Z" fill="#53575A"/>
<path d="M63.1126 63.1123H50.4854C50.4854 56.1395 56.1397 50.4851 63.1126 50.4851V63.1123Z" fill="#E43D30"/>
<path d="M63.1126 63.1123H50.4854C50.4854 70.0852 56.1397 75.7395 63.1126 75.7395V63.1123Z" fill="white"/>
<path d="M63.1123 63.1123H75.7395C75.7395 70.0852 70.0852 75.7395 63.1123 75.7395V63.1123Z" fill="#C8C8C8"/>
</svg>
