<svg width="1138" height="213" viewBox="0 0 1138 213" fill="none" xmlns="http://www.w3.org/2000/svg">
<path d="M197.253 45.5205H45.5195V81.9639H197.253V127.483H45.5195V212.427H0V0H197.253V45.5205ZM288.293 166.907H440.026V212.427H242.773V0H288.293V166.907ZM682.8 45.5205H531.066V81.9639H682.8V127.483H531.066V166.907H682.8V212.427H485.547V0H682.8V45.5205ZM844.626 82.0889H876.214L924.95 0.547852H981.343L921.974 103.377L984.934 212.427H924.95L876.214 128.013H844.626L795.89 212.427H735.906L798.866 103.377L739.498 0.547852H795.89L844.626 82.0889ZM1138 45.5205H1107.65V166.907H1138V212.427H1031.79V166.907H1062.13V45.5205H1031.79V0H1138V45.5205Z" fill="#D9D9D9" fill-opacity="0.05"/>
</svg>
