<svg width="14" height="12" viewBox="0 0 14 12" fill="none" xmlns="http://www.w3.org/2000/svg">
<path d="M8.77778 8.22222V2.77778C8.77778 2.1555 8.77778 1.84436 8.65667 1.60668C8.55015 1.39761 8.38017 1.22763 8.1711 1.1211C7.93342 1 7.62228 1 7 1H2.77778C2.1555 1 1.84436 1 1.60668 1.1211C1.39761 1.22763 1.22763 1.39761 1.1211 1.60668C1 1.84436 1 2.1555 1 2.77778V6.44444C1 7.06673 1 7.37787 1.1211 7.61555C1.22763 7.82461 1.39761 7.99459 1.60668 8.10112C1.84436 8.22222 2.1555 8.22222 2.77778 8.22222H8.77778ZM8.77778 8.22222H11.2222C11.5334 8.22222 11.6889 8.22222 11.8078 8.16167C11.9123 8.10841 11.9973 8.02342 12.0506 7.91888C12.1111 7.80004 12.1111 7.64447 12.1111 7.33333V5.81263C12.1111 5.67675 12.1111 5.60881 12.0958 5.54487C12.0822 5.48818 12.0597 5.43399 12.0292 5.38429C11.9949 5.32822 11.9468 5.28018 11.8508 5.18409L10.7048 4.03813C10.6087 3.94204 10.5607 3.894 10.5046 3.85964C10.4549 3.82918 10.4007 3.80674 10.344 3.79313C10.2801 3.77778 10.2121 3.77778 10.0763 3.77778H8.77778M4.88889 9.61111C4.88889 10.3782 4.26706 11 3.5 11C2.73294 11 2.11111 10.3782 2.11111 9.61111C2.11111 8.84405 2.73294 8.22222 3.5 8.22222C4.26706 8.22222 4.88889 8.84405 4.88889 9.61111ZM11 9.61111C11 10.3782 10.3782 11 9.61111 11C8.84405 11 8.22222 10.3782 8.22222 9.61111C8.22222 8.84405 8.84405 8.22222 9.61111 8.22222C10.3782 8.22222 11 8.84405 11 9.61111Z" stroke="#C8C8C8" stroke-width="2" stroke-linecap="round" stroke-linejoin="round"/>
</svg>
