<svg width="25" height="25" viewBox="0 0 25 25" fill="none" xmlns="http://www.w3.org/2000/svg">
<circle cx="12.1565" cy="12.1565" r="12.1565" fill="#757575"/>
<path d="M18.3371 15.4899C18.2021 15.0848 17.7295 14.4885 17.1107 13.7796C16.7731 13.3745 16.2668 12.947 16.1092 12.7332C15.8955 12.4519 15.9517 12.3281 16.1092 12.0806C16.1092 12.0806 17.8871 9.58272 18.0671 8.72759C18.1571 8.42379 18.067 8.1875 17.6282 8.1875H16.1655C15.7942 8.1875 15.6255 8.37877 15.5354 8.60381C15.5354 8.60381 14.7928 10.4153 13.7464 11.5855C13.4088 11.9231 13.2513 12.0356 13.0713 12.0356C12.9813 12.0356 12.8462 11.9231 12.8462 11.6193V8.72759C12.8462 8.35628 12.7338 8.1875 12.43 8.1875H10.1346C9.89834 8.1875 9.76328 8.35628 9.76328 8.52505C9.76328 8.87385 10.2921 8.95263 10.3371 9.94278V12.0918C10.3371 12.5644 10.2471 12.6432 10.0671 12.6432C9.57203 12.6432 8.3681 10.8317 7.65925 8.75009C7.52423 8.34502 7.37792 8.1875 7.00661 8.1875H5.54389C5.12758 8.1875 5.04883 8.37877 5.04883 8.60381C5.04883 8.98637 5.54389 10.8992 7.34417 13.4308C8.5481 15.1636 10.2471 16.0975 11.7886 16.0975C12.7112 16.0975 12.835 15.8949 12.835 15.5349V14.2297C12.835 13.8133 12.925 13.7346 13.2176 13.7346C13.4314 13.7346 13.8027 13.8471 14.669 14.6797C15.6592 15.6699 15.8167 16.1087 16.3793 16.1087H17.842C18.2584 16.1087 18.4609 15.8949 18.3371 15.4899Z" fill="white"/>
</svg>
