<svg width="102" height="102" viewBox="0 0 102 102" fill="none" xmlns="http://www.w3.org/2000/svg">
<path d="M50.5158 0.00976562H0.00390625V50.5216H50.5158V0.00976562Z" fill="black"/>
<path d="M6.31269 0.00567195L0 6.31836L6.31269 12.631L12.6254 6.31836L6.31269 0.00567195Z" fill="white"/>
<path d="M18.9416 0.00371882L12.6289 6.31641L18.9416 12.6291L25.2543 6.31641L18.9416 0.00371882Z" fill="#E43D30"/>
<path d="M31.5725 0.0017657L25.2598 6.31445L31.5725 12.6271L37.8851 6.31445L31.5725 0.0017657Z" fill="white"/>
<path d="M44.1955 -0.00020024L37.8828 6.3125L44.1955 12.6252L50.5082 6.31249L44.1955 -0.00020024Z" fill="#E43D30"/>
<path d="M6.31659 25.2654L0.00390625 31.5781L6.31659 37.8908L12.6293 31.5781L6.31659 25.2654Z" fill="white"/>
<path d="M18.9416 25.2733L12.6289 31.5859L18.9416 37.8986L25.2543 31.5859L18.9416 25.2733Z" fill="#E43D30"/>
<path d="M31.5806 25.2622L25.2637 31.5791L31.5764 37.8918L37.8933 31.5749L31.5806 25.2622Z" fill="white"/>
<path d="M44.2036 25.2612L37.8867 31.5781L44.1994 37.8908L50.5163 31.5739L44.2036 25.2612Z" fill="#E43D30"/>
<path d="M6.31464 12.6356L0.00195312 18.9482L6.31464 25.2609L12.6273 18.9482L6.31464 12.6356Z" fill="#E43D30"/>
<path d="M18.9435 12.6336L12.6309 18.9463L18.9435 25.259L25.2562 18.9463L18.9435 12.6336Z" fill="white"/>
<path d="M31.5744 12.6316L25.2617 18.9443L31.5744 25.257L37.8871 18.9443L31.5744 12.6316Z" fill="#E43D30"/>
<path d="M44.1994 12.6297L37.8867 18.9424L44.1994 25.2551L50.5121 18.9424L44.1994 12.6297Z" fill="white"/>
<path d="M6.31855 37.8943L0.00585938 44.207L6.31855 50.5197L12.6312 44.207L6.31855 37.8943Z" fill="#E43D30"/>
<path d="M18.9377 37.8983L12.625 44.2109L18.9377 50.5236L25.2504 44.2109L18.9377 37.8983Z" fill="white"/>
<path d="M31.5725 37.8983L25.2598 44.2109L31.5725 50.5236L37.8851 44.2109L31.5725 37.8983Z" fill="#E43D30"/>
<path d="M44.2033 37.8904L37.8906 44.2031L44.2033 50.5158L50.516 44.2031L44.2033 37.8904Z" fill="white"/>
<path d="M101.029 0.0117188H50.5176V50.5236H101.029V0.0117188Z" fill="black"/>
<path d="M75.7735 25.2676C61.8269 25.2676 50.5176 36.5769 50.5176 50.5235C64.4642 50.5235 75.7735 39.2142 75.7735 25.2676Z" fill="white"/>
<path d="M75.7735 25.2677C75.7735 11.3211 64.4642 0.0117188 50.5176 0.0117188C50.5176 13.9583 61.8269 25.2677 75.7735 25.2677Z" fill="white"/>
<path d="M101.029 0.0117188C87.0828 0.0117188 75.7734 11.3211 75.7734 25.2677C89.72 25.2677 101.029 13.9583 101.029 0.0117188Z" fill="white"/>
<path d="M75.7734 25.2676C75.7734 39.2142 87.0828 50.5235 101.029 50.5235C101.029 36.5769 89.72 25.2676 75.7734 25.2676Z" fill="white"/>
<path d="M101.029 50.5234H50.5176V101.029H101.029V50.5234Z" fill="#E43D30"/>
<path d="M101.029 101.035V50.5234C87.0828 50.5234 75.7734 61.8328 75.7734 75.7794C75.7734 89.726 87.0828 101.035 101.029 101.035Z" fill="#C8C8C8"/>
<path d="M101.029 91.7578V59.8018C92.2023 59.8018 85.0508 66.9532 85.0508 75.7798C85.0508 84.6063 92.2023 91.7578 101.029 91.7578Z" fill="black"/>
<path d="M50.5176 50.5234V101.035C64.4642 101.035 75.7735 89.726 75.7735 75.7794C75.7735 61.8328 64.4642 50.5234 50.5176 50.5234Z" fill="#53575A"/>
<path d="M50.5176 59.8018V91.7578C59.3441 91.7578 66.4956 84.6063 66.4956 75.7798C66.4956 66.9532 59.3441 59.8018 50.5176 59.8018Z" fill="white"/>
</svg>
