<svg width="39" height="39" viewBox="0 0 39 39" fill="none" xmlns="http://www.w3.org/2000/svg">
<circle cx="19.1907" cy="19.1907" r="19.1907" fill="#1D1D1D"/>
<path d="M28.948 24.4526C28.7349 23.8131 27.9889 22.8717 27.012 21.7527C26.4791 21.1132 25.6797 20.4383 25.431 20.1008C25.0936 19.6568 25.1824 19.4614 25.431 19.0706C25.431 19.0706 28.2376 15.1273 28.5218 13.7774C28.6638 13.2978 28.5217 12.9248 27.829 12.9248H25.5198C24.9337 12.9248 24.6673 13.2268 24.5252 13.582C24.5252 13.582 23.3528 16.4417 21.7009 18.289C21.1681 18.8219 20.9194 18.9995 20.6352 18.9995C20.4931 18.9995 20.28 18.8219 20.28 18.3423V13.7774C20.28 13.1912 20.1024 12.9248 19.6228 12.9248H15.9993C15.6263 12.9248 15.4131 13.1912 15.4131 13.4577C15.4131 14.0083 16.2479 14.1327 16.319 15.6957V19.0883C16.319 19.8343 16.1769 19.9587 15.8927 19.9587C15.1112 19.9587 13.2106 17.099 12.0916 13.8129C11.8784 13.1735 11.6475 12.9248 11.0613 12.9248H8.75223C8.09502 12.9248 7.9707 13.2268 7.9707 13.582C7.9707 14.1859 8.75223 17.2055 11.5942 21.2021C13.4948 23.9375 16.1769 25.4117 18.6103 25.4117C20.0668 25.4117 20.2623 25.092 20.2623 24.5236V22.4632C20.2623 21.806 20.4043 21.6816 20.8662 21.6816C21.2037 21.6816 21.7898 21.8592 23.1575 23.1737C24.7206 24.7367 24.9693 25.4295 25.8574 25.4295H28.1665C28.8237 25.4295 29.1434 25.092 28.948 24.4526Z" fill="white"/>
</svg>
