<svg width="16" height="18" viewBox="0 0 16 18" fill="none" xmlns="http://www.w3.org/2000/svg">
<path d="M10.8059 6.35V3.95C10.8059 2.18269 9.43775 0.75 7.75 0.75C6.06225 0.75 4.69406 2.18269 4.69406 3.95V6.35M1.32641 7.43157L0.868022 12.5516C0.737688 14.0073 0.672521 14.7352 0.903201 15.2974C1.10585 15.7913 1.46096 16.1997 1.91164 16.457C2.42466 16.75 3.12282 16.75 4.51914 16.75H10.9809C12.3772 16.75 13.0753 16.75 13.5884 16.457C14.039 16.1997 14.3942 15.7913 14.5968 15.2974C14.8275 14.7352 14.7623 14.0073 14.632 12.5516L14.1736 7.43157C14.0635 6.20228 14.0085 5.58763 13.7445 5.12293C13.512 4.71367 13.1684 4.38609 12.7576 4.18188C12.2911 3.95 11.7016 3.95 10.5225 3.95L4.97753 3.95C3.79843 3.95 3.20888 3.95 2.7424 4.18187C2.33156 4.38609 1.98803 4.71367 1.75551 5.12293C1.4915 5.58763 1.43647 6.20228 1.32641 7.43157Z" stroke="white" stroke-width="1.5" stroke-linecap="round" stroke-linejoin="round"/>
</svg>
