<svg width="11" height="8" viewBox="0 0 11 8" fill="none" xmlns="http://www.w3.org/2000/svg">
<path d="M0.43934 2.56066C1.02513 1.97487 1.97487 1.97487 2.56066 2.56066L5.38909 5.38909C5.97487 5.97487 5.97487 6.92462 5.38909 7.51041C4.8033 8.09619 3.85355 8.09619 3.26777 7.51041L0.43934 4.68198C-0.146447 4.09619 -0.146447 3.14645 0.43934 2.56066Z" fill="white"/>
<path d="M10.3378 0.43934C10.9236 1.02513 10.9236 1.97487 10.3378 2.56066L5.38803 7.51041C4.80224 8.09619 3.8525 8.09619 3.26671 7.51041C2.68092 6.92462 2.68092 5.97487 3.26671 5.38909L8.21646 0.43934C8.80224 -0.146447 9.75199 -0.146447 10.3378 0.43934Z" fill="white"/>
</svg>
