<svg width="49" height="49" viewBox="0 0 49 49" fill="none" xmlns="http://www.w3.org/2000/svg">
<path d="M24.4317 24.5045H0.00390625V0.00012207H24.4317V24.5045Z" fill="#C8C8C8"/>
<path d="M24.4287 12.2554C17.6841 12.2554 12.2148 6.76905 12.2148 0.00326538C18.9595 0.00326538 24.4287 5.48966 24.4287 12.2554Z" fill="black"/>
<path d="M24.4287 12.2552C24.4287 19.021 18.9595 24.5074 12.2148 24.5074C12.2148 17.7416 17.6841 12.2552 24.4287 12.2552Z" fill="black"/>
<path d="M12.2139 24.5045C5.46925 24.5045 0 19.0181 0 12.2523C6.74464 12.2523 12.2139 17.7387 12.2139 24.5045Z" fill="black"/>
<path d="M0.00390625 12.2554C0.00390625 5.48966 5.47315 0.00326538 12.2178 0.00326538C12.2178 6.76905 6.74854 12.2554 0.00390625 12.2554Z" fill="black"/>
<path d="M24.4141 48.9976V47.8508L25.5573 48.9976H24.4141Z" fill="black"/>
<path d="M48.8425 48.9976H47.6992L48.8425 47.8479V48.9976Z" fill="black"/>
<path d="M47.6992 24.4931H48.8425V25.64L47.6992 24.4931Z" fill="black"/>
<path d="M24.4141 24.4929H25.5602L24.4141 25.6426V24.4929Z" fill="black"/>
<path d="M48.8441 47.8479L47.7008 48.9976H44.248L48.8441 44.3872V47.8479Z" fill="#C8C8C8"/>
<path d="M48.8431 29.1036L44.25 24.4932H47.6999L48.8431 25.64V29.1036Z" fill="#C8C8C8"/>
<path d="M25.5573 48.9976L24.4141 47.8508V44.3901L29.0072 48.9976H25.5573Z" fill="#C8C8C8"/>
<path d="M24.4141 25.6429L25.5602 24.4932H29.0101L24.4141 29.1036V25.6429Z" fill="#C8C8C8"/>
<path d="M48.8438 44.3872L44.2478 48.9976H41.6367L48.8438 41.765V44.3872Z" fill="black"/>
<path d="M29.0072 48.9976L24.4141 44.3901V41.7679L31.6212 48.9976H29.0072Z" fill="black"/>
<path d="M24.4141 29.1037L29.0101 24.4933H31.624L24.4141 31.7259V29.1037Z" fill="black"/>
<path d="M48.8438 31.7259L41.6367 24.4933H44.2507L48.8438 29.1037V31.7259Z" fill="black"/>
<path d="M48.8428 41.765L41.6357 48.9976H39.082L48.8428 39.2063V41.765Z" fill="white"/>
<path d="M24.4141 31.7255L31.624 24.4929H34.1748L24.4141 34.2842V31.7255Z" fill="white"/>
<path d="M48.8428 34.2842L39.082 24.4929H41.6357L48.8428 31.7255V34.2842Z" fill="white"/>
<path d="M31.6212 48.9976L24.4141 41.7679V39.2063L34.1748 48.9976H31.6212Z" fill="white"/>
<path d="M48.8428 39.2063L39.082 48.9976H36.6289L48.8428 36.7454L36.6289 24.4933H39.082L48.8428 34.2846V39.2063Z" fill="#E43D30"/>
<path d="M24.4141 34.2844L34.1748 24.493H36.6279L24.4141 36.7452V34.2844Z" fill="#E43D30"/>
<path d="M34.1748 48.9976L24.4141 39.2063V36.7455L36.6279 48.9976H34.1748Z" fill="#E43D30"/>
<path d="M36.629 48.9974L24.418 36.7481L36.6319 24.496L48.8457 36.7481L36.6319 49.0003L36.629 48.9974ZM26.6758 36.7453L36.6261 46.7268L46.5793 36.7424L36.629 26.758L26.6758 36.7424V36.7453Z" fill="white"/>
<path d="M36.63 46.7296L26.6797 36.7481L36.6329 26.7636L46.5833 36.7481L36.63 46.7325V46.7296ZM36.63 28.7893L28.6991 36.7452L36.63 44.701L44.561 36.7452L36.63 28.7893Z" fill="black"/>
<path d="M36.6283 44.7042L28.6973 36.7483L36.6283 28.7925L44.5592 36.7483L36.6283 44.7042ZM30.6391 36.7454L36.6283 42.7505L42.6174 36.7426L36.6283 30.7346L30.6391 36.7426V36.7454Z" fill="white"/>
<path d="M36.6285 42.7574L30.6406 36.7508L36.6285 30.7441L42.6164 36.7508L36.6285 42.7574Z" fill="#53575A"/>
<path d="M48.8418 24.5079H24.4141V0.00353241H48.8418V24.5079Z" fill="black"/>
<path d="M30.521 6.12946H24.4141C24.4141 2.74657 27.1487 0.00337458 30.521 0.00337458V6.12946Z" fill="white"/>
<path d="M30.5234 6.12946H36.6304C36.6304 2.74657 33.8958 0.00337458 30.5234 0.00337458V6.12946Z" fill="#C8C8C8"/>
<path d="M30.5234 6.1296H36.6304C36.6304 9.51249 33.8958 12.2557 30.5234 12.2557V6.1296Z" fill="#53575A"/>
<path d="M30.521 6.1296H24.4141C24.4141 9.51249 27.1487 12.2557 30.521 12.2557V6.1296Z" fill="#E43D30"/>
<path d="M42.7383 18.3818H48.8452C48.8452 21.7647 46.1106 24.5079 42.7383 24.5079V18.3818Z" fill="#53575A"/>
<path d="M42.7359 18.3818H36.6289C36.6289 21.7647 39.3635 24.5079 42.7359 24.5079V18.3818Z" fill="#E43D30"/>
<path d="M42.7359 18.3819H36.6289C36.6289 14.999 39.3635 12.2558 42.7359 12.2558V18.3819Z" fill="white"/>
<path d="M42.7383 18.3819H48.8452C48.8452 14.999 46.1106 12.2558 42.7383 12.2558V18.3819Z" fill="#C8C8C8"/>
<path d="M42.7359 6.12946H36.6289C36.6289 2.74657 39.3635 0.00337458 42.7359 0.00337458V6.12946Z" fill="white"/>
<path d="M42.7383 6.12946H48.8452C48.8452 2.74657 46.1106 0.00337458 42.7383 0.00337458V6.12946Z" fill="#C8C8C8"/>
<path d="M42.7383 6.1296H48.8452C48.8452 9.51249 46.1106 12.2557 42.7383 12.2557V6.1296Z" fill="#53575A"/>
<path d="M42.7359 6.1296H36.6289C36.6289 9.51249 39.3635 12.2557 42.7359 12.2557V6.1296Z" fill="#E43D30"/>
<path d="M30.5234 18.3818H36.6304C36.6304 21.7647 33.8958 24.5079 30.5234 24.5079V18.3818Z" fill="#53575A"/>
<path d="M30.521 18.3818H24.4141C24.4141 21.7647 27.1487 24.5079 30.521 24.5079V18.3818Z" fill="#E43D30"/>
<path d="M30.521 18.3819H24.4141C24.4141 14.999 27.1487 12.2558 30.521 12.2558V18.3819Z" fill="white"/>
<path d="M30.5234 18.3819H36.6304C36.6304 14.999 33.8958 12.2558 30.5234 12.2558V18.3819Z" fill="#C8C8C8"/>
</svg>
