<svg width="47" height="47" viewBox="0 0 47 47" fill="none" xmlns="http://www.w3.org/2000/svg">
<circle cx="23.1565" cy="23.1565" r="23.1565" fill="#E43D30"/>
<g clip-path="url(#clip0_317_109041)">
<path d="M22.7281 6.17144C13.3966 6.65904 7.23665 13.9776 7.62583 23.2062C7.79582 27.2458 9.41968 30.7216 9.80439 34.5553C9.90281 35.5484 9.61651 36.7742 10.7617 37.2081C12.1708 37.7404 14.3315 36.8457 15.5125 36.0271C15.9151 35.7542 16.2998 35.4366 16.5951 35.0429C17.8163 35.8526 18.9749 36.6355 20.4288 36.9844C26.8303 38.5188 33.8446 35.0071 36.9626 29.3662C42.8228 18.7686 34.9003 5.53621 22.7281 6.17144ZM19.1046 28.2881C18.5991 28.6817 18.1115 29.2185 17.5524 29.5272C16.7427 29.9611 16.4922 29.5093 16.188 28.7936C15.2307 26.5166 15.1144 22.6381 15.6735 20.2538C16.4251 17.0106 18.9347 14.1565 22.3837 13.8523C25.8729 13.5436 29.1117 15.3151 30.5745 18.5136C33.8133 25.6308 25.524 32.6586 19.1046 28.2925V28.2881Z" fill="white"/>
</g>
<defs>
<clipPath id="clip0_317_109041">
<rect width="32.2087" height="32.2087" fill="white" transform="translate(7.05371 5.74219)"/>
</clipPath>
</defs>
</svg>
