<svg width="11" height="11" viewBox="0 0 11 11" fill="none" xmlns="http://www.w3.org/2000/svg">
<path d="M5.63415 0C6.37502 3.23844e-08 6.97561 0.600594 6.97561 1.34146L6.97561 9.65854C6.97561 10.3994 6.37502 11 5.63415 11C4.89328 11 4.29268 10.3994 4.29268 9.65854L4.29268 1.34146C4.29268 0.600594 4.89328 -3.23844e-08 5.63415 0Z" fill="#1D1D1D"/>
<path d="M11 5.5C11 6.24087 10.3994 6.84146 9.65854 6.84146L1.34146 6.84146C0.600594 6.84146 -6.47689e-08 6.24087 0 5.5C6.47689e-08 4.75913 0.600594 4.15854 1.34146 4.15854L9.65854 4.15854C10.3994 4.15854 11 4.75913 11 5.5Z" fill="#1D1D1D"/>
</svg>
