<svg width="47" height="47" viewBox="0 0 47 47" fill="none" xmlns="http://www.w3.org/2000/svg">
<circle cx="23.1565" cy="23.1565" r="23.1565" fill="#E43D30"/>
<path d="M34.9286 29.5067C34.6714 28.7351 33.7712 27.5991 32.5924 26.2489C31.9494 25.4773 30.9848 24.6629 30.6848 24.2556C30.2775 23.7198 30.3847 23.484 30.6848 23.0125C30.6848 23.0125 34.0713 18.2544 34.4142 16.6255C34.5857 16.0468 34.4141 15.5967 33.5782 15.5967H30.7919C30.0847 15.5967 29.7632 15.961 29.5918 16.3897C29.5918 16.3897 28.1771 19.8404 26.1839 22.0694C25.5409 22.7124 25.2408 22.9267 24.8979 22.9267C24.7264 22.9267 24.4692 22.7124 24.4692 22.1337V16.6255C24.4692 15.9182 24.2549 15.5967 23.6763 15.5967H19.304C18.8539 15.5967 18.5966 15.9182 18.5966 16.2397C18.5966 16.9041 19.604 17.0541 19.6897 18.9402V23.0339C19.6897 23.9341 19.5183 24.0842 19.1753 24.0842C18.2323 24.0842 15.939 20.6334 14.5887 16.6683C14.3315 15.8967 14.0528 15.5967 13.3455 15.5967H10.5592C9.76622 15.5967 9.61621 15.961 9.61621 16.3897C9.61621 17.1184 10.5592 20.762 13.9885 25.5845C16.2818 28.8851 19.5182 30.6641 22.4545 30.6641C24.212 30.6641 24.4479 30.2783 24.4479 29.5924V27.1062C24.4479 26.3132 24.6193 26.1631 25.1766 26.1631C25.5838 26.1631 26.2911 26.3775 27.9414 27.9635C29.8275 29.8496 30.1276 30.6855 31.1992 30.6855H33.9855C34.7786 30.6855 35.1643 30.2783 34.9286 29.5067Z" fill="white"/>
</svg>
