<svg width="50" height="49" viewBox="0 0 50 49" fill="none" xmlns="http://www.w3.org/2000/svg">
<path d="M49.0057 0.00439453H24.5V24.5101H49.0057V0.00439453Z" fill="black"/>
<path d="M27.5626 0.00284181L24.5 3.06543L27.5626 6.12802L30.6252 3.06543L27.5626 0.00284181Z" fill="white"/>
<path d="M33.6876 0.00186524L30.625 3.06445L33.6876 6.12704L36.7502 3.06445L33.6876 0.00186524Z" fill="#E43D30"/>
<path d="M39.8126 0.000888681L36.75 3.06348L39.8126 6.12606L42.8752 3.06348L39.8126 0.000888681Z" fill="white"/>
<path d="M45.9376 -9.42883e-05L42.875 3.0625L45.9376 6.12509L49.0002 3.06249L45.9376 -9.42883e-05Z" fill="#E43D30"/>
<path d="M27.5626 12.2577L24.5 15.3203L27.5626 18.3829L30.6252 15.3203L27.5626 12.2577Z" fill="white"/>
<path d="M33.6876 12.2616L30.625 15.3242L33.6876 18.3868L36.7502 15.3242L33.6876 12.2616Z" fill="#E43D30"/>
<path d="M39.8146 12.2567L36.75 15.3213L39.8126 18.3839L42.8772 15.3192L39.8146 12.2567Z" fill="white"/>
<path d="M45.9396 12.2557L42.875 15.3203L45.9376 18.3829L49.0022 15.3183L45.9396 12.2557Z" fill="#E43D30"/>
<path d="M27.5626 6.12979L24.5 9.19238L27.5626 12.255L30.6252 9.19238L27.5626 6.12979Z" fill="#E43D30"/>
<path d="M33.6876 6.12882L30.625 9.19141L33.6876 12.254L36.7502 9.19141L33.6876 6.12882Z" fill="white"/>
<path d="M39.8126 6.12833L36.75 9.19092L39.8126 12.2535L42.8752 9.19092L39.8126 6.12833Z" fill="#E43D30"/>
<path d="M45.9376 6.12735L42.875 9.18994L45.9376 12.2525L49.0002 9.18993L45.9376 6.12735Z" fill="white"/>
<path d="M27.5626 18.3847L24.5 21.4473L27.5626 24.5099L30.6252 21.4473L27.5626 18.3847Z" fill="#E43D30"/>
<path d="M33.6876 18.3857L30.625 21.4482L33.6876 24.5108L36.7502 21.4482L33.6876 18.3857Z" fill="white"/>
<path d="M39.8126 18.3857L36.75 21.4482L39.8126 24.5108L42.8752 21.4482L39.8126 18.3857Z" fill="#E43D30"/>
<path d="M45.9376 18.3817L42.875 21.4443L45.9376 24.5069L49.0002 21.4443L45.9376 18.3817Z" fill="white"/>
<path d="M24.5057 0H0V24.5057H24.5057V0Z" fill="black"/>
<path d="M12.2529 12.2529C5.4867 12.2529 0 17.7396 0 24.5058C6.76617 24.5058 12.2529 19.0191 12.2529 12.2529Z" fill="white"/>
<path d="M12.2529 12.2529C12.2529 5.48671 6.76617 0 0 0C0 6.76617 5.4867 12.2529 12.2529 12.2529Z" fill="white"/>
<path d="M24.5029 0C17.7367 0 12.25 5.48671 12.25 12.2529C19.0162 12.2529 24.5029 6.76617 24.5029 0Z" fill="white"/>
<path d="M12.25 12.2529C12.25 19.0191 17.7367 24.5058 24.5029 24.5058C24.5029 17.7396 19.0162 12.2529 12.25 12.2529Z" fill="white"/>
<path d="M49.0057 24.4941H24.5V48.997H49.0057V24.4941Z" fill="#E43D30"/>
<path d="M49.2529 48.5057V24C42.4867 24 37 29.4867 37 36.2529C37 43.019 42.4867 48.5057 49.2529 48.5057Z" fill="#C8C8C8"/>
<path d="M49.0095 44.4988V28.9954C44.7273 28.9954 41.2578 32.4649 41.2578 36.7471C41.2578 41.0292 44.7273 44.4988 49.0095 44.4988Z" fill="black"/>
<path d="M24.5 24.4941V48.9999C31.2662 48.9999 36.7529 43.5132 36.7529 36.747C36.7529 29.9808 31.2662 24.4941 24.5 24.4941Z" fill="#53575A"/>
<path d="M24.5 28.9951V44.4985C28.7822 44.4985 32.2517 41.029 32.2517 36.7468C32.2517 32.4646 28.7822 28.9951 24.5 28.9951Z" fill="white"/>
</svg>
