<svg width="34" height="34" viewBox="0 0 34 34" fill="none" xmlns="http://www.w3.org/2000/svg">
<path d="M27 15V7C27 6.29993 27 5.9499 26.8638 5.68251C26.7439 5.44731 26.5527 5.25608 26.3175 5.13624C26.0501 5 25.7001 5 25 5H9C8.29993 5 7.9499 5 7.68251 5.13624C7.44731 5.25608 7.25608 5.44731 7.13624 5.68251C7 5.9499 7 6.29993 7 7V15M27 15H7M27 15V15.25C27 17.3502 27 18.4003 26.5913 19.2025C26.2317 19.9081 25.6581 20.4817 24.9525 20.8413C24.1503 21.25 23.1002 21.25 21 21.25H13C10.8998 21.25 9.8497 21.25 9.04754 20.8413C8.34193 20.4817 7.76825 19.9081 7.40873 19.2025C7 18.4003 7 17.3502 7 15.25V15M20.125 21.25V26.875C20.125 28.6009 18.7259 30 17 30C15.2741 30 13.875 28.6009 13.875 26.875V21.25" stroke="#E43D30" stroke-width="2" stroke-linecap="round" stroke-linejoin="round"/>
</svg>
