<svg width="32" height="32" viewBox="0 0 32 32" fill="none" xmlns="http://www.w3.org/2000/svg">
<path d="M19 8.5H22.5059C22.8728 8.5 23.0562 8.5 23.2288 8.54145C23.3819 8.57819 23.5282 8.6388 23.6624 8.72104C23.8138 8.8138 23.9435 8.94352 24.2029 9.20294L30.2971 15.2971C30.5565 15.5565 30.6862 15.6862 30.779 15.8376C30.8612 15.9718 30.9218 16.1181 30.9586 16.2712C31 16.4438 31 16.6272 31 16.9941V21.25C31 21.9489 31 22.2984 30.8858 22.574C30.7336 22.9416 30.4416 23.2336 30.074 23.3858C29.7984 23.5 29.4489 23.5 28.75 23.5M21.25 23.5H19M19 23.5V8.8C19 7.11984 19 6.27976 18.673 5.63803C18.3854 5.07354 17.9265 4.6146 17.362 4.32698C16.7202 4 15.8802 4 14.2 4H5.8C4.11984 4 3.27976 4 2.63803 4.32698C2.07354 4.6146 1.6146 5.07354 1.32698 5.63803C1 6.27976 1 7.11984 1 8.8V20.5C1 22.1569 2.34315 23.5 4 23.5M19 23.5H13M13 23.5C13 25.9853 10.9853 28 8.5 28C6.01472 28 4 25.9853 4 23.5M13 23.5C13 21.0147 10.9853 19 8.5 19C6.01472 19 4 21.0147 4 23.5M28.75 24.25C28.75 26.3211 27.0711 28 25 28C22.9289 28 21.25 26.3211 21.25 24.25C21.25 22.1789 22.9289 20.5 25 20.5C27.0711 20.5 28.75 22.1789 28.75 24.25Z" stroke="#E43D30" stroke-width="2" stroke-linecap="round" stroke-linejoin="round"/>
</svg>
