<svg width="36" height="32" viewBox="0 0 36 32" fill="none" xmlns="http://www.w3.org/2000/svg">
<path d="M10.35 14.3333H5.42C4.46791 14.3333 3.99187 14.3333 3.62822 14.515C3.30834 14.6748 3.04827 14.9297 2.88529 15.2433C2.7 15.5999 2.7 16.0666 2.7 17V31M25.65 14.3333H30.58C31.5321 14.3333 32.0081 14.3333 32.3718 14.515C32.6917 14.6748 32.9517 14.9297 33.1147 15.2433C33.3 15.5999 33.3 16.0666 33.3 17V31M25.65 31V6.33333C25.65 4.46649 25.65 3.53307 25.2794 2.82003C24.9535 2.19282 24.4333 1.68289 23.7936 1.36331C23.0663 1 22.1142 1 20.21 1H15.79C13.8858 1 12.9337 1 12.2064 1.36331C11.5667 1.68289 11.0465 2.19282 10.7206 2.82003C10.35 3.53307 10.35 4.46649 10.35 6.33333V31M35 31H1M16.3 7.66667H19.7M16.3 14.3333H19.7M16.3 21H19.7" stroke="#E43D30" stroke-width="2" stroke-linecap="round" stroke-linejoin="round"/>
</svg>
