<svg width="34" height="34" viewBox="0 0 34 34" fill="none" xmlns="http://www.w3.org/2000/svg">
<path d="M28.5557 21.5L16.5 26.9043L4.44336 21.5L16.5 16.0947L28.5557 21.5Z" fill="white" stroke="#E43D30" stroke-width="2"/>
<path d="M15.6464 11.3536C15.8417 11.5488 16.1583 11.5488 16.3536 11.3536L19.5355 8.17157C19.7308 7.97631 19.7308 7.65973 19.5355 7.46447C19.3403 7.2692 19.0237 7.2692 18.8284 7.46447L16 10.2929L13.1716 7.46447C12.9763 7.2692 12.6597 7.2692 12.4645 7.46447C12.2692 7.65973 12.2692 7.97631 12.4645 8.17157L15.6464 11.3536ZM16 5L15.5 5L15.5 11L16 11L16.5 11L16.5 5L16 5Z" fill="#E43D30"/>
<path d="M27.6464 15.3536C27.8417 15.5488 28.1583 15.5488 28.3536 15.3536L31.5355 12.1716C31.7308 11.9763 31.7308 11.6597 31.5355 11.4645C31.3403 11.2692 31.0237 11.2692 30.8284 11.4645L28 14.2929L25.1716 11.4645C24.9763 11.2692 24.6597 11.2692 24.4645 11.4645C24.2692 11.6597 24.2692 11.9763 24.4645 12.1716L27.6464 15.3536ZM28 9L27.5 9L27.5 15L28 15L28.5 15L28.5 9L28 9Z" fill="#E43D30"/>
<path d="M4.64645 15.3536C4.84171 15.5488 5.15829 15.5488 5.35355 15.3536L8.53553 12.1716C8.7308 11.9763 8.7308 11.6597 8.53553 11.4645C8.34027 11.2692 8.02369 11.2692 7.82843 11.4645L5 14.2929L2.17157 11.4645C1.97631 11.2692 1.65973 11.2692 1.46447 11.4645C1.2692 11.6597 1.2692 11.9763 1.46447 12.1716L4.64645 15.3536ZM5 9L4.5 9L4.5 15L5 15L5.5 15L5.5 9L5 9Z" fill="#E43D30"/>
</svg>
