<svg width="34" height="34" viewBox="0 0 34 34" fill="none" xmlns="http://www.w3.org/2000/svg">
<path d="M16.3889 8.74648L16.3889 24.2535M12.0556 7.63883L12.0556 25.3612M7 9.84213L7 23.1579C7 24.6687 7 25.4242 7.20319 25.9478C7.38135 26.4069 7.6617 26.7518 7.99258 26.9189C8.36994 27.1096 8.85078 26.9457 9.81246 26.6179L18.1902 23.7627C18.836 23.5426 19.1589 23.4325 19.3999 23.1663C19.6125 22.9314 19.7794 22.6122 19.8828 22.243C20 21.8244 20 21.3171 20 20.3026V12.6974C20 11.6829 20 11.1756 19.8828 10.757C19.7794 10.3878 19.6125 10.0686 19.3999 9.83375C19.1589 9.56746 18.836 9.45741 18.1902 9.23733L9.81246 6.38206C8.85078 6.05431 8.36994 5.89043 7.99258 6.08105C7.6617 6.24819 7.38135 6.59309 7.20319 7.0522C7 7.57582 7 8.33126 7 9.84213Z" stroke="#E43D30" stroke-width="2" stroke-linecap="round" stroke-linejoin="round"/>
<path d="M23.6464 16.6464C23.4512 16.8417 23.4512 17.1583 23.6464 17.3536L26.8284 20.5355C27.0237 20.7308 27.3403 20.7308 27.5355 20.5355C27.7308 20.3403 27.7308 20.0237 27.5355 19.8284L24.7071 17L27.5355 14.1716C27.7308 13.9763 27.7308 13.6597 27.5355 13.4645C27.3403 13.2692 27.0237 13.2692 26.8284 13.4645L23.6464 16.6464ZM30 17L30 16.5L24 16.5L24 17L24 17.5L30 17.5L30 17Z" fill="#E43D30"/>
</svg>
