<svg width="101" height="101" viewBox="0 0 101 101" fill="none" xmlns="http://www.w3.org/2000/svg">
<path d="M50.5167 50.4912H0.0078125V101H50.5167V50.4912Z" fill="#C8C8C8"/>
<path d="M50.5084 75.7397C36.5626 75.7397 25.2539 87.0484 25.2539 100.994C39.1997 100.994 50.5084 89.6855 50.5084 75.7397Z" fill="black"/>
<path d="M50.5084 75.7398C50.5084 61.794 39.1997 50.4854 25.2539 50.4854C25.2539 64.4311 36.5626 75.7398 50.5084 75.7398Z" fill="black"/>
<path d="M25.2545 50.4912C11.3087 50.4912 0 61.7999 0 75.7457C13.9458 75.7457 25.2545 64.437 25.2545 50.4912Z" fill="black"/>
<path d="M0.0078125 75.7397C0.0078125 89.6855 11.3165 100.994 25.2623 100.994C25.2623 87.0484 13.9536 75.7397 0.0078125 75.7397Z" fill="black"/>
<path d="M50.4844 0.00585938V2.36976L52.8483 0.00585938H50.4844Z" fill="black"/>
<path d="M100.993 0.00585938H98.6289L100.993 2.3757V0.00585938Z" fill="black"/>
<path d="M98.6289 50.5148H100.993V48.1509L98.6289 50.5148Z" fill="black"/>
<path d="M50.4844 50.5148H52.8542L50.4844 48.145V50.5148Z" fill="black"/>
<path d="M100.991 2.3757L98.6275 0.00585938H91.4883L100.991 9.50895V2.3757Z" fill="#C8C8C8"/>
<path d="M100.993 41.0117L91.4961 50.5148H98.6294L100.993 48.1509V41.0117Z" fill="#C8C8C8"/>
<path d="M52.8483 0.00585938L50.4844 2.36976V9.50302L59.9815 0.00585938H52.8483Z" fill="#C8C8C8"/>
<path d="M50.4844 48.145L52.8542 50.5148H59.9875L50.4844 41.0117V48.145Z" fill="#C8C8C8"/>
<path d="M100.992 9.50895L91.4888 0.00585938H86.0898L100.992 14.9138V9.50895Z" fill="black"/>
<path d="M59.9815 0.00585938L50.4844 9.50302V14.9079L65.3864 0.00585938H59.9815Z" fill="black"/>
<path d="M50.4844 41.0118L59.9875 50.5149H65.3923L50.4844 35.6069V41.0118Z" fill="black"/>
<path d="M100.992 35.6069L86.0898 50.5149H91.4947L100.992 41.0118V35.6069Z" fill="black"/>
<path d="M100.995 14.9138L86.0926 0.00585938H80.8125L100.995 20.188V14.9138Z" fill="white"/>
<path d="M50.4844 35.6067L65.3923 50.5147H70.6665L50.4844 30.3325V35.6067Z" fill="white"/>
<path d="M100.995 30.3325L80.8125 50.5147H86.0926L100.995 35.6067V30.3325Z" fill="white"/>
<path d="M65.3864 0.00585938L50.4844 14.9079V20.188L70.6665 0.00585938H65.3864Z" fill="white"/>
<path d="M100.993 20.188L80.8106 0.00585938H75.7383L100.993 25.2603L75.7383 50.5148H80.8106L100.993 30.3326V20.188Z" fill="#E43D30"/>
<path d="M50.4844 30.3325L70.6665 50.5147H75.7388L50.4844 25.2603V30.3325Z" fill="#E43D30"/>
<path d="M70.6665 0.00585938L50.4844 20.188V25.2603L75.7388 0.00585938H70.6665Z" fill="#E43D30"/>
<path d="M75.7407 0.0059271L50.4922 25.2544L75.7467 50.5089L101.001 25.2544L75.7467 0L75.7407 0.0059271ZM55.1606 25.2604L75.7348 4.6862L96.3149 25.2663L75.7407 45.8465L55.1606 25.2663V25.2604Z" fill="white"/>
<path d="M75.7383 4.68024L55.1641 25.2544L75.7442 45.8346L96.3184 25.2544L75.7383 4.67432V4.68024ZM75.7383 41.6591L59.3395 25.2604L75.7383 8.86161L92.137 25.2604L75.7383 41.6591Z" fill="black"/>
<path d="M75.7386 8.85547L59.3398 25.2542L75.7386 41.653L92.1374 25.2542L75.7386 8.85547ZM63.3549 25.2602L75.7386 12.8824L88.1223 25.2661L75.7386 37.6498L63.3549 25.2661V25.2602Z" fill="white"/>
<path d="M75.7365 12.868L63.3555 25.249L75.7365 37.6301L88.1175 25.249L75.7365 12.868Z" fill="#53575A"/>
<path d="M100.993 50.4854H50.4844V100.994H100.993V50.4854Z" fill="black"/>
<path d="M63.1116 88.3672H50.4844C50.4844 95.3401 56.1387 100.994 63.1116 100.994V88.3672Z" fill="white"/>
<path d="M63.1133 88.3672H75.7405C75.7405 95.3401 70.0862 100.994 63.1133 100.994V88.3672Z" fill="#C8C8C8"/>
<path d="M63.1133 88.367H75.7405C75.7405 81.3941 70.0862 75.7397 63.1133 75.7397V88.367Z" fill="#53575A"/>
<path d="M63.1116 88.367H50.4844C50.4844 81.3941 56.1387 75.7397 63.1116 75.7397V88.367Z" fill="#E43D30"/>
<path d="M88.3672 63.1126H100.994C100.994 56.1397 95.3401 50.4854 88.3672 50.4854V63.1126Z" fill="#53575A"/>
<path d="M88.3655 63.1126H75.7383C75.7383 56.1397 81.3926 50.4854 88.3655 50.4854V63.1126Z" fill="#E43D30"/>
<path d="M88.3655 63.1128H75.7383C75.7383 70.0857 81.3926 75.74 88.3655 75.74V63.1128Z" fill="white"/>
<path d="M88.3672 63.1128H100.994C100.994 70.0857 95.3401 75.74 88.3672 75.74V63.1128Z" fill="#C8C8C8"/>
<path d="M88.3655 88.3672H75.7383C75.7383 95.3401 81.3926 100.994 88.3655 100.994V88.3672Z" fill="white"/>
<path d="M88.3672 88.3672H100.994C100.994 95.3401 95.3401 100.994 88.3672 100.994V88.3672Z" fill="#C8C8C8"/>
<path d="M88.3672 88.367H100.994C100.994 81.3941 95.3401 75.7397 88.3672 75.7397V88.367Z" fill="#53575A"/>
<path d="M88.3655 88.367H75.7383C75.7383 81.3941 81.3926 75.7397 88.3655 75.7397V88.367Z" fill="#E43D30"/>
<path d="M63.1133 63.1126H75.7405C75.7405 56.1397 70.0862 50.4854 63.1133 50.4854V63.1126Z" fill="#53575A"/>
<path d="M63.1116 63.1126H50.4844C50.4844 56.1397 56.1387 50.4854 63.1116 50.4854V63.1126Z" fill="#E43D30"/>
<path d="M63.1116 63.1128H50.4844C50.4844 70.0857 56.1387 75.74 63.1116 75.74V63.1128Z" fill="white"/>
<path d="M63.1133 63.1128H75.7405C75.7405 70.0857 70.0862 75.74 63.1133 75.74V63.1128Z" fill="#C8C8C8"/>
</svg>
