<svg width="34" height="34" viewBox="0 0 34 34" fill="none" xmlns="http://www.w3.org/2000/svg">
<rect x="8" y="7" width="18" height="18" rx="1" stroke="#E43D30" stroke-width="2"/>
<mask id="path-2-inside-1_317_156880" fill="white">
<path d="M7 7C7 6.44772 7.44772 6 8 6H15C15.5523 6 16 6.44772 16 7V11C16 13.2091 14.2091 15 12 15H8C7.44772 15 7 14.5523 7 14V7Z"/>
</mask>
<path d="M7 7C7 6.44772 7.44772 6 8 6H15C15.5523 6 16 6.44772 16 7V11C16 13.2091 14.2091 15 12 15H8C7.44772 15 7 14.5523 7 14V7Z" stroke="#E43D30" stroke-width="4" mask="url(#path-2-inside-1_317_156880)"/>
<mask id="path-3-inside-2_317_156880" fill="white">
<path d="M7 18C7 17.4477 7.44772 17 8 17H12C14.2091 17 16 18.7909 16 21V25C16 25.5523 15.5523 26 15 26H8C7.44772 26 7 25.5523 7 25V18Z"/>
</mask>
<path d="M7 18C7 17.4477 7.44772 17 8 17H12C14.2091 17 16 18.7909 16 21V25C16 25.5523 15.5523 26 15 26H8C7.44772 26 7 25.5523 7 25V18Z" stroke="#E43D30" stroke-width="4" mask="url(#path-3-inside-2_317_156880)"/>
<mask id="path-4-inside-3_317_156880" fill="white">
<path d="M18 7C18 6.44772 18.4477 6 19 6H26C26.5523 6 27 6.44772 27 7V14C27 14.5523 26.5523 15 26 15H22C19.7909 15 18 13.2091 18 11V7Z"/>
</mask>
<path d="M18 7C18 6.44772 18.4477 6 19 6H26C26.5523 6 27 6.44772 27 7V14C27 14.5523 26.5523 15 26 15H22C19.7909 15 18 13.2091 18 11V7Z" stroke="#E43D30" stroke-width="4" mask="url(#path-4-inside-3_317_156880)"/>
<mask id="path-5-inside-4_317_156880" fill="white">
<path d="M18 21C18 18.7909 19.7909 17 22 17H26C26.5523 17 27 17.4477 27 18V25C27 25.5523 26.5523 26 26 26H19C18.4477 26 18 25.5523 18 25V21Z"/>
</mask>
<path d="M18 21C18 18.7909 19.7909 17 22 17H26C26.5523 17 27 17.4477 27 18V25C27 25.5523 26.5523 26 26 26H19C18.4477 26 18 25.5523 18 25V21Z" stroke="#E43D30" stroke-width="4" mask="url(#path-5-inside-4_317_156880)"/>
</svg>
