<svg width="34" height="34" viewBox="0 0 34 34" fill="none" xmlns="http://www.w3.org/2000/svg">
<path d="M13.1 13.1H13.113M20.9 20.9H20.913M22.2 11.8L11.8 22.2M13.75 13.1C13.75 13.459 13.459 13.75 13.1 13.75C12.741 13.75 12.45 13.459 12.45 13.1C12.45 12.741 12.741 12.45 13.1 12.45C13.459 12.45 13.75 12.741 13.75 13.1ZM21.55 20.9C21.55 21.259 21.259 21.55 20.9 21.55C20.541 21.55 20.25 21.259 20.25 20.9C20.25 20.541 20.541 20.25 20.9 20.25C21.259 20.25 21.55 20.541 21.55 20.9ZM30 17C30 24.1797 24.1797 30 17 30C9.8203 30 4 24.1797 4 17C4 9.8203 9.8203 4 17 4C24.1797 4 30 9.8203 30 17Z" stroke="#E43D30" stroke-width="2" stroke-linecap="round" stroke-linejoin="round"/>
</svg>
