<svg width="34" height="34" viewBox="0 0 34 34" fill="none" xmlns="http://www.w3.org/2000/svg">
							<rect width="34" height="34" rx="10" fill="#E43D30"/>
							<path d="M17.5 7H20.2C21.8802 7 22.7202 7 23.362 7.32698C23.9265 7.6146 24.3854 8.07354 24.673 8.63803C25 9.27976 25 10.1198 25 11.8V22.2C25 23.8802 25 24.7202 24.673 25.362C24.3854 25.9265 23.9265 26.3854 23.362 26.673C22.7202 27 21.8802 27 20.2 27H13.8C12.1198 27 11.2798 27 10.638 26.673C10.0735 26.3854 9.6146 25.9265 9.32698 25.362C9 24.7202 9 23.8802 9 22.2V21.5M21 18H16.5M21 14H17.5M21 22H13M11 15V9.5C11 8.67157 11.6716 8 12.5 8C13.3284 8 14 8.67157 14 9.5V15C14 16.6569 12.6569 18 11 18C9.34315 18 8 16.6569 8 15V11" stroke="white" stroke-width="2" stroke-linecap="round" stroke-linejoin="round"/>
						</svg>