<svg width="101" height="101" viewBox="0 0 101 101" fill="none" xmlns="http://www.w3.org/2000/svg">
<path d="M101.004 0.00927734H50.4922V50.5212H101.004V0.00927734Z" fill="black"/>
<path d="M56.801 0.00542781L50.4883 6.31812L56.801 12.6308L63.1137 6.31812L56.801 0.00542781Z" fill="white"/>
<path d="M69.4299 0.00371882L63.1172 6.31641L69.4299 12.6291L75.7426 6.31641L69.4299 0.00371882Z" fill="#E43D30"/>
<path d="M82.0607 0.0017657L75.748 6.31445L82.0607 12.6271L88.3734 6.31445L82.0607 0.0017657Z" fill="white"/>
<path d="M94.6838 4.3901e-05L88.3711 6.31274L94.6838 12.6254L100.996 6.31273L94.6838 4.3901e-05Z" fill="#E43D30"/>
<path d="M56.8049 25.2652L50.4922 31.5779L56.8049 37.8906L63.1176 31.5779L56.8049 25.2652Z" fill="white"/>
<path d="M69.4299 25.2735L63.1172 31.5862L69.4299 37.8989L75.7426 31.5862L69.4299 25.2735Z" fill="#E43D30"/>
<path d="M82.0688 25.2634L75.752 31.5803L82.0646 37.893L88.3815 31.5761L82.0688 25.2634Z" fill="white"/>
<path d="M94.6919 25.2615L88.375 31.5784L94.6877 37.8911L101.005 31.5742L94.6919 25.2615Z" fill="#E43D30"/>
<path d="M56.8029 12.6353L50.4902 18.948L56.8029 25.2607L63.1156 18.948L56.8029 12.6353Z" fill="#E43D30"/>
<path d="M69.4318 12.6336L63.1191 18.9463L69.4318 25.259L75.7445 18.9463L69.4318 12.6336Z" fill="white"/>
<path d="M82.0627 12.6316L75.75 18.9443L82.0627 25.257L88.3754 18.9443L82.0627 12.6316Z" fill="#E43D30"/>
<path d="M94.6877 12.6299L88.375 18.9426L94.6877 25.2553L101 18.9426L94.6877 12.6299Z" fill="white"/>
<path d="M56.8068 37.8948L50.4941 44.2075L56.8068 50.5202L63.1195 44.2075L56.8068 37.8948Z" fill="#E43D30"/>
<path d="M69.426 37.8973L63.1133 44.21L69.426 50.5226L75.7387 44.21L69.426 37.8973Z" fill="white"/>
<path d="M82.0607 37.8973L75.748 44.21L82.0607 50.5226L88.3734 44.21L82.0607 37.8973Z" fill="#E43D30"/>
<path d="M94.6916 37.8894L88.3789 44.2021L94.6916 50.5148L101.004 44.2021L94.6916 37.8894Z" fill="white"/>
<path d="M50.5119 0H0V50.5119H50.5119V0Z" fill="black"/>
<path d="M25.2559 25.2559C11.3093 25.2559 0 36.5652 0 50.5118C13.9466 50.5118 25.2559 39.2025 25.2559 25.2559Z" fill="white"/>
<path d="M25.2559 25.256C25.2559 11.3094 13.9466 0 0 0C0 13.9466 11.3093 25.256 25.2559 25.256Z" fill="white"/>
<path d="M50.5118 0C36.5652 0 25.2559 11.3094 25.2559 25.256C39.2025 25.256 50.5118 13.9466 50.5118 0Z" fill="white"/>
<path d="M25.2559 25.2559C25.2559 39.2025 36.5652 50.5118 50.5118 50.5118C50.5118 36.5652 39.2025 25.2559 25.2559 25.2559Z" fill="white"/>
<path d="M101 50.488H50.4883V100.994H101V50.488Z" fill="#E43D30"/>
<path d="M101 101V50.488C87.0535 50.488 75.7441 61.7974 75.7441 75.744C75.7441 89.6906 87.0535 101 101 101Z" fill="#C8C8C8"/>
<path d="M101.001 91.7221V59.7661C92.1749 59.7661 85.0234 66.9176 85.0234 75.7441C85.0234 84.5706 92.1749 91.7221 101.001 91.7221Z" fill="black"/>
<path d="M50.4883 50.488V101C64.4349 101 75.7442 89.6906 75.7442 75.744C75.7442 61.7974 64.4349 50.488 50.4883 50.488Z" fill="#53575A"/>
<path d="M50.4883 59.7661V91.7221C59.3148 91.7221 66.4663 84.5706 66.4663 75.7441C66.4663 66.9176 59.3148 59.7661 50.4883 59.7661Z" fill="white"/>
</svg>
