<svg width="171" height="171" viewBox="0 0 171 171" fill="none" xmlns="http://www.w3.org/2000/svg">
<path d="M85.0478 0.015625H0.0078125V85.0556H85.0478V0.015625Z" fill="#C8C8C8"/>
<path d="M85.0395 42.5254C61.5595 42.5254 42.5195 61.5654 42.5195 85.0454C65.9995 85.0454 85.0395 66.0054 85.0395 42.5254Z" fill="black"/>
<path d="M85.0395 42.5259C85.0395 19.0459 65.9995 0.00585938 42.5195 0.00585938C42.5195 23.4859 61.5595 42.5259 85.0395 42.5259Z" fill="black"/>
<path d="M42.52 0.015625C19.04 0.015625 0 19.0556 0 42.5356C23.48 42.5356 42.52 23.4956 42.52 0.015625Z" fill="black"/>
<path d="M0.0078125 42.5254C0.0078125 66.0054 19.0478 85.0454 42.5278 85.0454C42.5278 61.5654 23.4878 42.5254 0.0078125 42.5254Z" fill="black"/>
<path d="M170.048 0.015625H85.0078V85.0556H170.048V0.015625Z" fill="black"/>
<path d="M95.6278 0.00890487L85 10.6367L95.6278 21.2645L106.256 10.6367L95.6278 0.00890487Z" fill="white"/>
<path d="M116.89 0.00597519L106.262 10.6338L116.89 21.2616L127.517 10.6338L116.89 0.00597519Z" fill="#E43D30"/>
<path d="M138.155 0.0030455L127.527 10.6309L138.155 21.2587L148.783 10.6309L138.155 0.0030455Z" fill="white"/>
<path d="M159.405 9.42321e-05L148.777 10.6279L159.405 21.2557L170.033 10.6279L159.405 9.42321e-05Z" fill="#E43D30"/>
<path d="M95.6356 42.5353L85.0078 53.1631L95.6356 63.7909L106.263 53.1631L95.6356 42.5353Z" fill="white"/>
<path d="M116.893 42.5499L106.266 53.1777L116.893 63.8055L127.521 53.1777L116.893 42.5499Z" fill="#E43D30"/>
<path d="M138.17 42.5331L127.535 53.168L138.163 63.7958L148.798 53.1609L138.17 42.5331Z" fill="white"/>
<path d="M159.42 42.5292L148.785 53.1641L159.413 63.7919L170.048 53.157L159.42 42.5292Z" fill="#E43D30"/>
<path d="M95.6317 21.2726L85.0039 31.9004L95.6317 42.5282L106.26 31.9004L95.6317 21.2726Z" fill="#E43D30"/>
<path d="M116.893 21.2706L106.266 31.8984L116.893 42.5263L127.521 31.8984L116.893 21.2706Z" fill="white"/>
<path d="M138.159 21.2667L127.531 31.8945L138.159 42.5223L148.787 31.8945L138.159 21.2667Z" fill="#E43D30"/>
<path d="M159.409 21.2638L148.781 31.8916L159.409 42.5194L170.037 31.8916L159.409 21.2638Z" fill="white"/>
<path d="M95.6356 63.798L85.0078 74.4258L95.6356 85.0536L106.263 74.4258L95.6356 63.798Z" fill="#E43D30"/>
<path d="M116.882 63.8019L106.254 74.4297L116.882 85.0575L127.51 74.4297L116.882 63.8019Z" fill="white"/>
<path d="M138.151 63.8019L127.523 74.4297L138.151 85.0575L148.779 74.4297L138.151 63.8019Z" fill="#E43D30"/>
<path d="M159.413 63.7892L148.785 74.417L159.413 85.0448L170.041 74.417L159.413 63.7892Z" fill="white"/>
<path d="M8.27171 161.77V141.71L0.0117188 133.44V170.04H36.6117L28.3417 161.77H8.27171Z" fill="#C8C8C8"/>
<path d="M76.7814 93.27V113.33L85.0414 121.6V85H48.4414L56.7114 93.27H76.7814Z" fill="#C8C8C8"/>
<path d="M8.27171 93.27H28.3417L36.6017 85H0.0117188V121.6L8.27171 113.33V93.27Z" fill="#C8C8C8"/>
<path d="M76.7831 141.709V161.769H56.7131L48.4531 170.039H85.0431V133.439L76.7831 141.709Z" fill="#C8C8C8"/>
<path d="M56.7098 93.27L48.4398 85H36.5999L28.3398 93.27H56.7098Z" fill="black"/>
<path d="M8.27171 113.33L0.0117188 121.6V133.44L8.27171 141.71V113.33Z" fill="white"/>
<path d="M28.3398 161.77L36.6098 170.04H48.4498L56.7098 161.77H28.3398Z" fill="#101820"/>
<path d="M76.7812 141.71L85.0412 133.44V121.6L76.7812 113.33V141.71Z" fill="white"/>
<path d="M76.7812 93.2695H28.3412H8.28125V161.78H76.7812V93.2795V93.2695ZM63.0112 148.01H56.2912L42.5312 161.77L28.7712 148.01H22.0512V141.29L8.28125 127.53L22.0512 113.76V107.04H28.7712L42.5312 93.2795L56.2912 107.05H63.0112V113.77L76.7712 127.54L63.0112 141.31V148.03V148.01Z" fill="#53575A"/>
<path d="M8.27344 127.52L22.0434 141.28V113.75L8.27344 127.52Z" fill="black"/>
<path d="M42.5217 93.2695L28.7617 107.03H56.2917L42.5217 93.2695Z" fill="black"/>
<path d="M42.5317 161.77L56.2917 148.01H28.7617L42.5317 161.77Z" fill="black"/>
<path d="M63.0117 113.76V141.29L76.7717 127.52L63.0117 113.76Z" fill="black"/>
<path d="M22.043 148.01H28.763L22.043 141.28V148.01Z" fill="#E43D30"/>
<path d="M63.013 148.01V141.29L56.293 148.01H63.013Z" fill="#E43D30"/>
<path d="M22.043 107.03V113.75L28.763 107.03H22.043Z" fill="#E43D30"/>
<path d="M63.013 107.03H56.293L63.013 113.76V107.03Z" fill="#E43D30"/>
<path d="M56.293 107.03H28.763L22.043 113.75V141.28L28.763 148H56.293L63.013 141.28V113.75L56.293 107.03ZM25.233 127.52L42.533 110.22L59.833 127.52L42.533 144.82L25.233 127.52Z" fill="#E43D30"/>
<path d="M42.5373 110.215L25.2344 127.518L42.5302 144.813L59.8331 127.511L42.5373 110.215Z" fill="white"/>
</svg>
