<svg width="101" height="101" viewBox="0 0 101 101" fill="none" xmlns="http://www.w3.org/2000/svg">
<path d="M101.004 0.00927734H50.4922V50.5212H101.004V0.00927734Z" fill="black"/>
<path d="M56.801 0.00567195L50.4883 6.31836L56.801 12.631L63.1137 6.31836L56.801 0.00567195Z" fill="white"/>
<path d="M69.4299 0.00371882L63.1172 6.31641L69.4299 12.6291L75.7426 6.31641L69.4299 0.00371882Z" fill="#E43D30"/>
<path d="M82.0588 0.0017657L75.7461 6.31445L82.0588 12.6271L88.3715 6.31445L82.0588 0.0017657Z" fill="white"/>
<path d="M94.6838 -0.00020024L88.3711 6.3125L94.6838 12.6252L100.996 6.31249L94.6838 -0.00020024Z" fill="#E43D30"/>
<path d="M56.8049 25.2649L50.4922 31.5776L56.8049 37.8903L63.1176 31.5776L56.8049 25.2649Z" fill="white"/>
<path d="M69.4299 25.2733L63.1172 31.5859L69.4299 37.8986L75.7426 31.5859L69.4299 25.2733Z" fill="#E43D30"/>
<path d="M82.0669 25.2632L75.75 31.5801L82.0627 37.8928L88.3796 31.5759L82.0669 25.2632Z" fill="white"/>
<path d="M94.6919 25.2612L88.375 31.5781L94.6877 37.8908L101.005 31.5739L94.6919 25.2612Z" fill="#E43D30"/>
<path d="M56.801 12.6356L50.4883 18.9482L56.801 25.2609L63.1137 18.9482L56.801 12.6356Z" fill="#E43D30"/>
<path d="M69.4299 12.6336L63.1172 18.9463L69.4299 25.259L75.7426 18.9463L69.4299 12.6336Z" fill="white"/>
<path d="M82.0588 12.6316L75.7461 18.9443L82.0588 25.257L88.3715 18.9443L82.0588 12.6316Z" fill="#E43D30"/>
<path d="M94.6838 12.6297L88.3711 18.9424L94.6838 25.2551L100.996 18.9424L94.6838 12.6297Z" fill="white"/>
<path d="M56.8049 37.8953L50.4922 44.208L56.8049 50.5207L63.1176 44.208L56.8049 37.8953Z" fill="#E43D30"/>
<path d="M69.4221 37.8973L63.1094 44.21L69.4221 50.5226L75.7347 44.21L69.4221 37.8973Z" fill="white"/>
<path d="M82.0588 37.8973L75.7461 44.21L82.0588 50.5226L88.3715 44.21L82.0588 37.8973Z" fill="#E43D30"/>
<path d="M94.6877 37.8894L88.375 44.2021L94.6877 50.5148L101 44.2021L94.6877 37.8894Z" fill="white"/>
<path d="M50.5119 0H0V50.5119H50.5119V0Z" fill="black"/>
<path d="M25.2559 25.2559C11.3093 25.2559 0 36.5652 0 50.5118C13.9466 50.5118 25.2559 39.2025 25.2559 25.2559Z" fill="white"/>
<path d="M25.2559 25.256C25.2559 11.3094 13.9466 0 0 0C0 13.9466 11.3093 25.256 25.2559 25.256Z" fill="white"/>
<path d="M50.5138 0C36.5672 0 25.2578 11.3094 25.2578 25.256C39.2044 25.256 50.5138 13.9466 50.5138 0Z" fill="white"/>
<path d="M25.2578 25.2559C25.2578 39.2025 36.5672 50.5118 50.5138 50.5118C50.5138 36.5652 39.2044 25.2559 25.2578 25.2559Z" fill="white"/>
<path d="M101 50.4883H50.4883V100.994H101V50.4883Z" fill="#E43D30"/>
<path d="M101.002 101V50.4883C87.0554 50.4883 75.7461 61.7976 75.7461 75.7442C75.7461 89.6908 87.0554 101 101.002 101Z" fill="#C8C8C8"/>
<path d="M101.001 91.7226V59.7666C92.1749 59.7666 85.0234 66.9181 85.0234 75.7446C85.0234 84.5711 92.1749 91.7226 101.001 91.7226Z" fill="black"/>
<path d="M50.4883 50.4883V101C64.4349 101 75.7442 89.6908 75.7442 75.7442C75.7442 61.7976 64.4349 50.4883 50.4883 50.4883Z" fill="#53575A"/>
<path d="M50.4883 59.7661V91.7221C59.3148 91.7221 66.4663 84.5706 66.4663 75.7441C66.4663 66.9176 59.3148 59.7661 50.4883 59.7661Z" fill="white"/>
</svg>
