<svg width="30" height="30" viewBox="0 0 30 30" fill="none" xmlns="http://www.w3.org/2000/svg">
<path d="M29.0505 0.00341797H0.00390625V29.05H29.0505V0.00341797Z" fill="#C8C8C8"/>
<path d="M29.0467 14.5234C21.0268 14.5234 14.5234 21.0268 14.5234 29.0467C22.5434 29.0467 29.0467 22.5434 29.0467 14.5234Z" fill="black"/>
<path d="M29.0467 14.5233C29.0467 6.50338 22.5434 0 14.5234 0C14.5234 8.01992 21.0268 14.5233 29.0467 14.5233Z" fill="black"/>
<path d="M14.5233 0.00341797C6.50338 0.00341797 0 6.50679 0 14.5267C8.01992 14.5267 14.5233 8.02334 14.5233 0.00341797Z" fill="black"/>
<path d="M0.00390625 14.5234C0.00390625 22.5434 6.50728 29.0467 14.5272 29.0467C14.5272 21.0268 8.02382 14.5234 0.00390625 14.5234Z" fill="black"/>
</svg>
