<svg width="29" height="29" viewBox="0 0 29 29" fill="none" xmlns="http://www.w3.org/2000/svg">
<path d="M28.9994 28.999L0.00195312 28.999L0.00195566 0.00161743L28.9994 0.00161997L28.9994 28.999Z" fill="black"/>
<path d="M3.62393 29.0004L0 25.3765L3.62393 21.7525L7.24786 25.3765L3.62393 29.0004Z" fill="white"/>
<path d="M10.8739 29.0009L7.25 25.377L10.8739 21.753L14.4979 25.377L10.8739 29.0009Z" fill="#E43D30"/>
<path d="M18.1239 29.0023L14.5 25.3784L18.1239 21.7545L21.7479 25.3784L18.1239 29.0023Z" fill="white"/>
<path d="M25.372 29.0038L21.748 25.3799L25.372 21.756L28.9959 25.3799L25.372 29.0038Z" fill="#E43D30"/>
<path d="M3.62588 14.4999L0.00195312 10.876L3.62588 7.25205L7.24981 10.876L3.62588 14.4999Z" fill="white"/>
<path d="M10.8739 14.495L7.25 10.8711L10.8739 7.24716L14.4979 10.8711L10.8739 14.495Z" fill="#E43D30"/>
<path d="M18.1302 14.5009L14.5039 10.8745L18.1278 7.25058L21.7542 10.8769L18.1302 14.5009Z" fill="white"/>
<path d="M25.3763 14.5018L21.75 10.8755L25.3739 7.25156L29.0003 10.8779L25.3763 14.5018Z" fill="#E43D30"/>
<path d="M3.62588 21.7509L0.00195312 18.127L3.62588 14.503L7.24981 18.127L3.62588 21.7509Z" fill="#E43D30"/>
<path d="M10.8759 21.7514L7.25195 18.1274L10.8759 14.5035L14.4998 18.1274L10.8759 21.7514Z" fill="white"/>
<path d="M18.1259 21.7528L14.502 18.1289L18.1259 14.505L21.7498 18.1289L18.1259 21.7528Z" fill="#E43D30"/>
<path d="M25.372 21.7538L21.748 18.1299L25.372 14.506L28.9959 18.1299L25.372 21.7538Z" fill="white"/>
<path d="M3.62784 7.24942L0.00390625 3.62549L3.62784 0.0015583L7.25177 3.62549L3.62784 7.24942Z" fill="#E43D30"/>
<path d="M10.872 7.24795L7.24805 3.62402L10.872 9.34592e-05L14.4959 3.62402L10.872 7.24795Z" fill="white"/>
<path d="M18.1259 7.24795L14.502 3.62402L18.1259 9.34592e-05L21.7498 3.62402L18.1259 7.24795Z" fill="#E43D30"/>
<path d="M25.3759 7.25236L21.752 3.62842L25.3759 0.00448799L28.9998 3.62843L25.3759 7.25236Z" fill="white"/>
</svg>
