<svg width="29" height="29" viewBox="0 0 29 29" fill="none" xmlns="http://www.w3.org/2000/svg">
<path d="M28.9994 28.9995L0 28.9995L2.53521e-06 0.000137329L28.9994 0.000139864L28.9994 28.9995Z" fill="#C8C8C8"/>
<path d="M14.545 2.3151L14.4495 2.3151C13.9823 2.3151 13.5492 2.50266 13.198 2.8539L10.9644 5.0875L6.96095 5.0875C6.43238 5.0875 5.97544 5.27848 5.63443 5.63653C5.27637 5.97413 5.0854 6.43449 5.0854 6.96305L5.0854 10.9665L2.84838 13.2035C2.50396 13.5479 2.31641 14.0083 2.31641 14.5028C2.31641 14.9972 2.50737 15.4576 2.84838 15.802L5.0854 18.039L5.0854 22.0425C5.0854 23.0757 5.92769 23.918 6.96094 23.918L10.9644 23.918L13.198 26.1516C13.5424 26.496 14.0028 26.6836 14.4972 26.6836C14.9917 26.6836 15.4521 26.4926 15.7965 26.1516L18.0301 23.918L22.0369 23.918C23.0702 23.918 23.9125 23.0757 23.9125 22.0425L23.9125 18.0356L26.1427 15.8054C26.8588 15.0893 26.8588 13.923 26.1427 13.2069L23.9091 10.9733L23.9091 6.96647C23.9091 5.93321 23.0668 5.09092 22.0335 5.09092L18.0267 5.09092L15.7931 2.8573C15.4418 2.50266 15.0088 2.31851 14.5416 2.31851L14.545 2.3151ZM14.4802 3.57342L14.5484 3.57342C14.678 3.57342 14.7939 3.62799 14.9099 3.74393L17.5118 6.34583L22.0404 6.34583C22.3677 6.34583 22.6542 6.63227 22.6542 6.95964L22.6542 11.4882L25.2561 14.0901C25.4743 14.3084 25.4743 14.6903 25.2561 14.9086L22.6542 17.5105L22.6542 22.039C22.6542 22.3664 22.3677 22.6529 22.0404 22.6529L17.5118 22.6529L14.9065 25.2582C14.695 25.4696 14.2995 25.4696 14.088 25.2582L11.4827 22.6529L6.95754 22.6529C6.63017 22.6529 6.34372 22.3664 6.34372 22.039L6.34372 17.5139L3.73841 14.9086C3.6327 14.8028 3.57473 14.6562 3.57473 14.4993C3.57473 14.3425 3.6327 14.1958 3.73841 14.0901L6.34372 11.4848L6.34372 6.95964C6.34372 6.7789 6.39487 6.64251 6.504 6.54362L6.54492 6.50269C6.64381 6.39356 6.78021 6.34241 6.96095 6.34241L11.4861 6.34241L14.088 3.74053C14.204 3.62458 14.3199 3.57002 14.4495 3.57002L14.4768 3.57002L14.4802 3.57342Z" fill="white"/>
<path d="M14.5313 6.09355L14.4972 6.09355L14.4631 6.09355C14.1562 6.09355 13.8697 6.21631 13.6344 6.45161L12.0658 8.02025L9.25928 8.02025C8.90804 8.02025 8.60454 8.14643 8.37947 8.38513C8.14077 8.6102 8.01459 8.91369 8.01459 9.26493L8.01459 12.0714L6.44254 13.6435C6.21407 13.872 6.08789 14.1755 6.08789 14.5028C6.08789 14.8302 6.21407 15.1371 6.44254 15.3622L8.01459 16.9342L8.01459 19.7407C8.01459 20.4261 8.57385 20.982 9.25587 20.982L12.0624 20.982L13.6344 22.554C13.8629 22.7825 14.1664 22.9087 14.4938 22.9087C14.8211 22.9087 15.128 22.7825 15.3531 22.554L16.9217 20.982L19.7317 20.982C20.4171 20.982 20.9729 20.4227 20.9729 19.7407L20.9729 16.9308L22.5416 15.3622C23.0156 14.8882 23.0156 14.1141 22.5416 13.6401L20.9729 12.0714L20.9729 9.26152C20.9729 8.57609 20.4137 8.02025 19.7317 8.02025L16.9217 8.02025L15.3531 6.45161C15.1178 6.21631 14.8348 6.09355 14.5245 6.09355L14.5313 6.09355ZM14.4835 6.84718L14.5347 6.84718C14.6404 6.84718 14.7359 6.89151 14.8279 6.98358L16.6182 8.77388L19.7419 8.77388C20.0045 8.77388 20.2295 8.99553 20.2295 9.26152L20.2295 12.3852L22.0198 14.1755C22.1971 14.3528 22.1971 14.6529 22.0198 14.8302L20.2295 16.6205L20.2295 19.7407C20.2295 20.0033 20.0079 20.2284 19.7419 20.2284L16.6217 20.2284L14.8314 22.0187C14.6609 22.1892 14.3471 22.1892 14.18 22.0187L12.3897 20.2284L9.26951 20.2284C9.00693 20.2284 8.78186 20.0067 8.78186 19.7407L8.78186 16.6205L6.98816 14.8268C6.90291 14.7415 6.85516 14.6256 6.85516 14.4994C6.85516 14.3732 6.90291 14.2573 6.98816 14.172L8.78186 12.3783L8.78186 9.25811C8.78186 9.11489 8.82619 9.00576 8.91144 8.92392L8.93532 8.90005C9.01716 8.81139 9.12288 8.77047 9.26951 8.77047L12.3897 8.77047L14.18 6.98018C14.2721 6.88811 14.3676 6.84377 14.4733 6.84377L14.4904 6.84377L14.4835 6.84718Z" fill="#E43D30"/>
<path d="M18.7472 14.8233C18.4402 15.1302 18.1367 15.4337 17.8298 15.7406L17.8298 17.357C17.8298 17.6128 17.615 17.8276 17.3593 17.8276L15.7429 17.8276C15.436 18.1345 15.1325 18.438 14.8256 18.7449C14.6482 18.9223 14.355 18.9223 14.1776 18.7449L13.2603 17.8276L11.6439 17.8276C11.3882 17.8276 11.1734 17.6128 11.1734 17.357L11.1734 15.7406C10.8664 15.4337 10.5629 15.1302 10.256 14.8233C10.0787 14.646 10.0787 14.3527 10.256 14.1754C10.5629 13.8685 10.8664 13.565 11.1734 13.2581L11.1734 11.6417C11.1734 11.4951 11.2279 11.3825 11.3132 11.3075C11.3882 11.2257 11.5007 11.1677 11.6474 11.1677L13.2637 11.1677C13.5706 10.8608 13.8741 10.5573 14.1811 10.2504C14.2799 10.1515 14.3959 10.1106 14.505 10.1174C14.6141 10.114 14.7267 10.1515 14.829 10.2504C15.1325 10.5573 15.4394 10.8608 15.7463 11.1677L17.3661 11.1677C17.6218 11.1677 17.8367 11.3825 17.8367 11.6383L17.8367 13.2581C18.1436 13.565 18.4471 13.8685 18.754 14.1754C18.9313 14.3527 18.9313 14.646 18.754 14.8233L18.7472 14.8233Z" fill="#53575A"/>
<path d="M0 29L4.41515e-07 23.9497C0.126174 23.9428 0.255754 23.9872 0.375107 24.1031C0.726346 24.4544 1.081 24.809 1.43224 25.1602L3.29755 25.1602C3.59423 25.1602 3.84317 25.4092 3.84317 25.7059L3.84317 27.5712C4.19441 27.9224 4.54905 28.2771 4.90029 28.6283C5.0026 28.7306 5.05375 28.8636 5.05375 29L0.00340821 29L0 29Z" fill="#53575A"/>
<path d="M28.9971 29L28.9971 23.9497C28.8709 23.9428 28.7379 23.9872 28.622 24.1031C28.2708 24.4544 27.9161 24.809 27.5649 25.1602L25.6996 25.1602C25.4029 25.1602 25.1539 25.4092 25.1539 25.7059L25.1539 27.5712C24.8027 27.9224 24.448 28.2771 24.0968 28.6283C23.9945 28.7306 23.9434 28.8636 23.9434 29L28.9937 29L28.9971 29Z" fill="#53575A"/>
<path d="M28.9971 0.00025555L28.9971 5.05059C28.8709 5.05741 28.7379 5.01308 28.622 4.89714C28.2708 4.5459 27.9161 4.19125 27.5649 3.84001L25.6996 3.84001C25.4029 3.84001 25.1539 3.59107 25.1539 3.29439L25.1539 1.42908C24.8027 1.07784 24.448 0.723192 24.0968 0.371954C23.9945 0.269651 23.9434 0.136659 23.9434 0.000255108L28.9937 0.000255549L28.9971 0.00025555Z" fill="#53575A"/>
<path d="M4.41574e-07 0.000255108L0 5.05059C0.126173 5.05741 0.255753 5.01308 0.375106 4.89714C0.726345 4.5459 1.081 4.19125 1.43224 3.84001L3.29755 3.84001C3.59423 3.84001 3.84317 3.59107 3.84317 3.29439L3.84317 1.42908C4.19441 1.07784 4.54906 0.723193 4.90029 0.371954C5.0026 0.269651 5.05375 0.136659 5.05375 0.00025555L0.00340866 0.000255108L4.41574e-07 0.000255108Z" fill="#53575A"/>
</svg>
