<svg width="40" height="40" viewBox="0 0 40 40" fill="none" xmlns="http://www.w3.org/2000/svg">
<path d="M0 0.00463867V1.8433L1.83865 0.00463867H0Z" fill="black"/>
<path d="M39.2859 0.00463867H37.4473L39.2859 1.84792V0.00463867Z" fill="black"/>
<path d="M37.4473 39.2911H39.2859V37.4524L37.4473 39.2911Z" fill="black"/>
<path d="M0 39.291H1.84327L0 37.4478V39.291Z" fill="black"/>
<path d="M39.2861 1.84792L37.4475 0.00463867H31.8945L39.2861 7.39622V1.84792Z" fill="#C8C8C8"/>
<path d="M39.2873 31.8994L31.9004 39.291H37.4487L39.2873 37.4523V31.8994Z" fill="#C8C8C8"/>
<path d="M1.83865 0.00463867L0 1.8433V7.39161L7.38695 0.00463867H1.83865Z" fill="#C8C8C8"/>
<path d="M0 37.4477L1.84327 39.291H7.39158L0 31.8994V37.4477Z" fill="#C8C8C8"/>
<path d="M39.2862 7.39622L31.8947 0.00463867H27.6953L39.2862 11.6002V7.39622Z" fill="black"/>
<path d="M7.38695 0.00463867L0 7.39161V11.5956L11.5909 0.00463867H7.38695Z" fill="black"/>
<path d="M0 31.8993L7.39158 39.2909H11.5955L0 27.6953V31.8993Z" fill="black"/>
<path d="M39.2862 27.6953L27.6953 39.2909H31.8993L39.2862 31.8993V27.6953Z" fill="black"/>
<path d="M39.2857 11.6002L27.6948 0.00463867H23.5879L39.2857 15.7025V11.6002Z" fill="white"/>
<path d="M0 27.6953L11.5955 39.2909H15.6979L0 23.593V27.6953Z" fill="white"/>
<path d="M39.2857 23.593L23.5879 39.2909H27.6948L39.2857 27.6953V23.593Z" fill="white"/>
<path d="M11.5909 0.00463867L0 11.5956V15.7025L15.6979 0.00463867H11.5909Z" fill="white"/>
<path d="M39.2857 15.7025L23.5878 0.00463867H19.6426L39.2857 19.6478L19.6426 39.2909H23.5878L39.2857 23.593V15.7025Z" fill="#E43D30"/>
<path d="M0 23.5929L15.6979 39.2908H19.6431L0 19.6477V23.5929Z" fill="#E43D30"/>
<path d="M15.6979 0.00463867L0 15.7025V19.6478L19.6431 0.00463867H15.6979Z" fill="#E43D30"/>
<path d="M19.6424 0.00461015L0.00390625 19.6431L19.647 39.2862L39.2901 19.6431L19.647 0L19.6424 0.00461015ZM3.63503 19.6477L19.6378 3.64496L35.6452 19.6523L19.6424 35.6597L3.63503 19.6523V19.6477Z" fill="white"/>
<path d="M19.6434 3.64035L3.64062 19.6431L19.648 35.6505L35.6508 19.6431L19.6434 3.63574V3.64035ZM19.6434 32.4028L6.8883 19.6478L19.6434 6.89265L32.3985 19.6478L19.6434 32.4028Z" fill="black"/>
<path d="M19.6438 6.88818L6.88867 19.6433L19.6438 32.3984L32.3989 19.6433L19.6438 6.88818ZM10.0116 19.6479L19.6438 10.0204L29.2759 19.6525L19.6438 29.2847L10.0116 19.6525V19.6479Z" fill="white"/>
<path d="M19.6398 10.0088L10.0098 19.6389L19.6398 29.269L29.2699 19.6389L19.6398 10.0088Z" fill="#53575A"/>
</svg>
