<svg width="40" height="40" viewBox="0 0 40 40" fill="none" xmlns="http://www.w3.org/2000/svg">
<path d="M39.2862 0H0V39.2862H39.2862V0Z" fill="black"/>
<path d="M19.6431 19.6431C8.79597 19.6431 0 28.439 0 39.2862C10.8471 39.2862 19.6431 30.4902 19.6431 19.6431Z" fill="white"/>
<path d="M19.6431 19.6431C19.6431 8.79599 10.8471 0 0 0C0 10.8471 8.79597 19.6431 19.6431 19.6431Z" fill="white"/>
<path d="M39.2857 0C28.4386 0 19.6426 8.79599 19.6426 19.6431C30.4897 19.6431 39.2857 10.8471 39.2857 0Z" fill="white"/>
<path d="M19.6426 19.6431C19.6426 30.4902 28.4386 39.2862 39.2857 39.2862C39.2857 28.439 30.4897 19.6431 19.6426 19.6431Z" fill="white"/>
</svg>
