<svg width="40" height="40" viewBox="0 0 40 40" fill="none" xmlns="http://www.w3.org/2000/svg">
<path d="M3.8159 35.4657V26.1985L0 22.3779V39.2862H16.9082L13.0877 35.4657H3.8159Z" fill="#C8C8C8"/>
<path d="M35.4654 3.82053V13.0877L39.2813 16.9082V0H22.373L26.1936 3.82053H35.4654Z" fill="#C8C8C8"/>
<path d="M3.8159 3.82053H13.0877L16.9036 0H0V16.9082L3.8159 13.0877V3.82053Z" fill="#C8C8C8"/>
<path d="M35.4666 26.1985V35.4657H26.1948L22.3789 39.2862H39.2825V22.3779L35.4666 26.1985Z" fill="#C8C8C8"/>
<path d="M26.1941 3.82053L22.3736 0H16.9038L13.0879 3.82053H26.1941Z" fill="black"/>
<path d="M3.8159 13.0876L0 16.9082V22.3779L3.8159 26.1985V13.0876Z" fill="white"/>
<path d="M13.0879 35.4658L16.9084 39.2863H22.3782L26.1941 35.4658H13.0879Z" fill="#101820"/>
<path d="M35.4668 26.1985L39.2827 22.3779V16.9082L35.4668 13.0876V26.1985Z" fill="white"/>
<path d="M35.4655 3.82056H13.0875H3.82031V35.4704H35.4655V3.82517V3.82056ZM29.1041 29.109H25.9997L19.6429 35.4657L13.2861 29.109H10.1817V26.0045L3.82031 19.6478L10.1817 13.2864V10.1819H13.2861L19.6429 3.82517L25.9997 10.1866H29.1041V13.291L35.4609 19.6524L29.1041 26.0138V29.1182V29.109Z" fill="#53575A"/>
<path d="M3.81641 19.6431L10.1778 25.9999V13.2817L3.81641 19.6431Z" fill="black"/>
<path d="M19.64 3.82056L13.2832 10.1773H26.0013L19.64 3.82056Z" fill="black"/>
<path d="M19.6446 35.4656L26.0013 29.1089H13.2832L19.6446 35.4656Z" fill="black"/>
<path d="M29.1055 13.2864V26.0045L35.4622 19.6431L29.1055 13.2864Z" fill="black"/>
<path d="M10.1777 29.1091H13.2822L10.1777 26V29.1091Z" fill="#E43D30"/>
<path d="M29.1045 29.1091V26.0046L26 29.1091H29.1045Z" fill="#E43D30"/>
<path d="M10.1777 10.1772V13.2817L13.2822 10.1772H10.1777Z" fill="#E43D30"/>
<path d="M29.1045 10.1772H26L29.1045 13.2863V10.1772Z" fill="#E43D30"/>
<path d="M26.0003 10.1772H13.2822L10.1777 13.2817V25.9998L13.2822 29.1043H26.0003L29.1048 25.9998V13.2817L26.0003 10.1772ZM11.6514 19.6431L19.6436 11.6509L27.6357 19.6431L19.6436 27.6352L11.6514 19.6431Z" fill="#E43D30"/>
<path d="M19.6458 11.6486L11.6523 19.6421L19.6426 27.6323L27.636 19.6388L19.6458 11.6486Z" fill="white"/>
</svg>
