<svg width="40" height="40" viewBox="0 0 40 40" fill="none" xmlns="http://www.w3.org/2000/svg">
<path d="M39.2901 0.00708008H0.00390625V39.2933H39.2901V0.00708008Z" fill="black"/>
<path d="M4.90977 0.00429292L0 4.91406L4.90977 9.82383L9.81954 4.91406L4.90977 0.00429292Z" fill="white"/>
<path d="M14.734 0.00282808L9.82422 4.9126L14.734 9.82237L19.6438 4.9126L14.734 0.00282808Z" fill="#E43D30"/>
<path d="M24.5563 0.00136323L19.6465 4.91113L24.5563 9.8209L29.466 4.91113L24.5563 0.00136323Z" fill="white"/>
<path d="M34.3746 -0.000111728L29.4648 4.90967L34.3746 9.81944L39.2844 4.90966L34.3746 -0.000111728Z" fill="#E43D30"/>
<path d="M4.91368 19.6503L0.00390625 24.5601L4.91368 29.4698L9.82345 24.5601L4.91368 19.6503Z" fill="white"/>
<path d="M14.734 19.6569L9.82422 24.5667L14.734 29.4764L19.6438 24.5667L14.734 19.6569Z" fill="#E43D30"/>
<path d="M24.5615 19.6487L19.6484 24.5618L24.5582 29.4715L29.4712 24.5585L24.5615 19.6487Z" fill="white"/>
<path d="M34.3818 19.6473L29.4688 24.5603L34.3785 29.4701L39.2916 24.557L34.3818 19.6473Z" fill="#E43D30"/>
<path d="M4.91172 9.82729L0.00195312 14.7371L4.91172 19.6468L9.82149 14.7371L4.91172 9.82729Z" fill="#E43D30"/>
<path d="M14.734 9.82583L9.82422 14.7356L14.734 19.6454L19.6438 14.7356L14.734 9.82583Z" fill="white"/>
<path d="M24.5582 9.82436L19.6484 14.7341L24.5582 19.6439L29.468 14.7341L24.5582 9.82436Z" fill="#E43D30"/>
<path d="M34.3766 9.82289L29.4668 14.7327L34.3766 19.6424L39.2863 14.7327L34.3766 9.82289Z" fill="white"/>
<path d="M4.91563 29.473L0.00585938 34.3828L4.91563 39.2926L9.8254 34.3828L4.91563 29.473Z" fill="#E43D30"/>
<path d="M14.7301 29.475L9.82031 34.3848L14.7301 39.2945L19.6399 34.3848L14.7301 29.475Z" fill="white"/>
<path d="M24.5563 29.475L19.6465 34.3848L24.5563 39.2945L29.466 34.3848L24.5563 29.475Z" fill="#E43D30"/>
<path d="M34.3805 29.4689L29.4707 34.3787L34.3805 39.2884L39.2903 34.3787L34.3805 29.4689Z" fill="white"/>
</svg>
