<svg width="39" height="39" viewBox="0 0 39 39" fill="none" xmlns="http://www.w3.org/2000/svg">
<circle cx="19.1907" cy="19.1907" r="19.1907" fill="#1D1D1D"/>
<path d="M28.948 24.4531C28.7349 23.8136 27.9889 22.8722 27.012 21.7532C26.4791 21.1137 25.6797 20.4388 25.431 20.1013C25.0936 19.6572 25.1824 19.4618 25.431 19.0711C25.431 19.0711 28.2376 15.1278 28.5217 13.7779C28.6638 13.2983 28.5217 12.9253 27.829 12.9253H25.5198C24.9337 12.9253 24.6673 13.2272 24.5252 13.5825C24.5252 13.5825 23.3528 16.4422 21.7009 18.2895C21.1681 18.8224 20.9194 19 20.6352 19C20.4931 19 20.28 18.8224 20.28 18.3428V13.7779C20.28 13.1917 20.1024 12.9253 19.6228 12.9253H15.9993C15.6263 12.9253 15.4131 13.1917 15.4131 13.4582C15.4131 14.0088 16.2479 14.1331 16.319 15.6962V19.0888C16.319 19.8348 16.1769 19.9592 15.8927 19.9592C15.1112 19.9592 13.2106 17.0994 12.0916 13.8134C11.8784 13.174 11.6475 12.9253 11.0613 12.9253H8.75223C8.09502 12.9253 7.9707 13.2272 7.9707 13.5825C7.9707 14.1864 8.75223 17.206 11.5942 21.2026C13.4948 23.938 16.1769 25.4122 18.6103 25.4122C20.0668 25.4122 20.2623 25.0925 20.2623 24.5241V22.4637C20.2623 21.8064 20.4043 21.6821 20.8662 21.6821C21.2037 21.6821 21.7898 21.8597 23.1575 23.1741C24.7206 24.7372 24.9693 25.43 25.8574 25.43H28.1665C28.8237 25.43 29.1434 25.0925 28.948 24.4531Z" fill="white"/>
</svg>
