<svg width="73" height="73" viewBox="0 0 73 73" fill="none" xmlns="http://www.w3.org/2000/svg">
<path d="M73.0028 72.9932H36.4941V36.4846H73.0028V72.9932Z" fill="black"/>
<path d="M41.0548 72.9957L36.4922 68.4331L41.0548 63.8705L45.6175 68.4331L41.0548 72.9957Z" fill="white"/>
<path d="M50.1818 72.9972L45.6191 68.4346L50.1818 63.8719L54.7444 68.4346L50.1818 72.9972Z" fill="#E43D30"/>
<path d="M59.3126 72.9987L54.75 68.436L59.3126 63.8734L63.8753 68.436L59.3126 72.9987Z" fill="white"/>
<path d="M68.4357 73.0001L63.873 68.4375L68.4357 63.8749L72.9983 68.4375L68.4357 73.0001Z" fill="#E43D30"/>
<path d="M41.0568 54.7394L36.4941 50.1768L41.0568 45.6141L45.6194 50.1768L41.0568 54.7394Z" fill="white"/>
<path d="M50.1818 54.7335L45.6191 50.1709L50.1818 45.6083L54.7444 50.1709L50.1818 54.7335Z" fill="#E43D30"/>
<path d="M59.3176 54.7405L54.752 50.1748L59.3146 45.6122L63.8803 50.1778L59.3176 54.7405Z" fill="white"/>
<path d="M68.4407 54.7419L63.875 50.1763L68.4376 45.6136L73.0033 50.1793L68.4407 54.7419Z" fill="#E43D30"/>
<path d="M41.0568 63.8673L36.4941 59.3047L41.0568 54.742L45.6194 59.3047L41.0568 63.8673Z" fill="#E43D30"/>
<path d="M50.1837 63.8688L45.6211 59.3062L50.1837 54.7435L54.7464 59.3062L50.1837 63.8688Z" fill="white"/>
<path d="M59.3126 63.8703L54.75 59.3076L59.3126 54.745L63.8753 59.3076L59.3126 63.8703Z" fill="#E43D30"/>
<path d="M68.4376 63.8717L63.875 59.3091L68.4376 54.7464L73.0003 59.3091L68.4376 63.8717Z" fill="white"/>
<path d="M41.0587 45.6105L36.4961 41.0479L41.0587 36.4852L45.6214 41.0479L41.0587 45.6105Z" fill="#E43D30"/>
<path d="M50.1798 45.609L45.6172 41.0464L50.1798 36.4837L54.7425 41.0464L50.1798 45.609Z" fill="white"/>
<path d="M59.3126 45.609L54.75 41.0464L59.3126 36.4837L63.8753 41.0464L59.3126 45.609Z" fill="#E43D30"/>
<path d="M68.4416 45.6144L63.8789 41.0518L68.4415 36.4891L73.0042 41.0518L68.4416 45.6144Z" fill="white"/>
<path d="M36.5086 73H0V36.4914H36.5086V73Z" fill="black"/>
<path d="M18.2543 54.7456C8.17408 54.7456 0 46.5715 0 36.4913C10.0802 36.4913 18.2543 44.6654 18.2543 54.7456Z" fill="white"/>
<path d="M18.2543 54.7457C18.2543 64.8259 10.0802 73 0 73C0 62.9198 8.17408 54.7457 18.2543 54.7457Z" fill="white"/>
<path d="M36.5082 73C26.428 73 18.2539 64.8259 18.2539 54.7457C28.3341 54.7457 36.5082 62.9198 36.5082 73Z" fill="white"/>
<path d="M18.2539 54.7456C18.2539 44.6654 26.428 36.4913 36.5082 36.4913C36.5082 46.5715 28.3341 54.7456 18.2539 54.7456Z" fill="white"/>
<path d="M73.0008 36.5088H36.4922V0.00447083H73.0008V36.5088Z" fill="#E43D30"/>
<path d="M73.0004 0.00018692V36.5088C62.9202 36.5088 54.7461 28.3347 54.7461 18.2545C54.7461 8.17426 62.9202 0.00018692 73.0004 0.00018692Z" fill="#C8C8C8"/>
<path d="M73.0016 6.7058V29.8027C66.622 29.8027 61.4531 24.6338 61.4531 18.2543C61.4531 11.8747 66.622 6.7058 73.0016 6.7058Z" fill="black"/>
<path d="M36.4922 36.5088V0.00018692C46.5724 0.00018692 54.7465 8.17426 54.7465 18.2545C54.7465 28.3347 46.5724 36.5088 36.4922 36.5088Z" fill="#53575A"/>
<path d="M36.4922 29.8027V6.7058C42.8717 6.7058 48.0407 11.8747 48.0407 18.2543C48.0407 24.6338 42.8717 29.8027 36.4922 29.8027Z" fill="white"/>
</svg>
