<svg width="44" height="44" viewBox="0 0 44 44" fill="none" xmlns="http://www.w3.org/2000/svg">
<path d="M43.0528 43.051L0.00390625 43.051L0.00391001 0.00217056L43.0528 0.00217433L43.0528 43.051Z" fill="black"/>
<path d="M5.38 43.0536L0 37.6736L5.38 32.2936L10.76 37.6736L5.38 43.0536Z" fill="white"/>
<path d="M16.1437 43.0546L10.7637 37.6746L16.1437 32.2946L21.5237 37.6746L16.1437 43.0546Z" fill="#E43D30"/>
<path d="M26.9073 43.0565L21.5273 37.6765L26.9073 32.2965L32.2873 37.6765L26.9073 43.0565Z" fill="white"/>
<path d="M37.6671 43.0585L32.2871 37.6785L37.6671 32.2985L43.0471 37.6785L37.6671 43.0585Z" fill="#E43D30"/>
<path d="M5.38391 21.5253L0.00390625 16.1453L5.38391 10.7653L10.7639 16.1453L5.38391 21.5253Z" fill="white"/>
<path d="M16.1437 21.5184L10.7637 16.1384L16.1437 10.7584L21.5237 16.1384L16.1437 21.5184Z" fill="#E43D30"/>
<path d="M26.9148 21.5269L21.5312 16.1433L26.9113 10.7633L32.2948 16.1469L26.9148 21.5269Z" fill="white"/>
<path d="M37.6726 21.5289L32.2891 16.1453L37.6691 10.7653L43.0526 16.1489L37.6726 21.5289Z" fill="#E43D30"/>
<path d="M5.38195 32.2909L0.00195312 26.9109L5.38195 21.5309L10.762 26.9109L5.38195 32.2909Z" fill="#E43D30"/>
<path d="M16.1456 32.2919L10.7656 26.9119L16.1456 21.5319L21.5256 26.9119L16.1456 32.2919Z" fill="white"/>
<path d="M26.9093 32.2938L21.5293 26.9138L26.9093 21.5338L32.2893 26.9138L26.9093 32.2938Z" fill="#E43D30"/>
<path d="M37.6671 32.2958L32.2871 26.9158L37.6671 21.5358L43.0471 26.9158L37.6671 32.2958Z" fill="white"/>
<path d="M5.38586 10.7621L0.00585938 5.38208L5.38586 0.0020834L10.7659 5.38208L5.38586 10.7621Z" fill="#E43D30"/>
<path d="M16.1417 10.7601L10.7617 5.38013L16.1417 0.000130271L21.5217 5.38013L16.1417 10.7601Z" fill="white"/>
<path d="M26.9093 10.7601L21.5293 5.38013L26.9093 0.000130271L32.2893 5.38013L26.9093 10.7601Z" fill="#E43D30"/>
<path d="M37.671 10.767L32.291 5.38697L37.671 0.00696621L43.051 5.38698L37.671 10.767Z" fill="white"/>
</svg>
