<svg width="44" height="44" viewBox="0 0 44 44" fill="none" xmlns="http://www.w3.org/2000/svg">
<path d="M4.18137 4.18664L4.18137 14.3414L0 18.5278L1.61974e-06 0.00021553L18.5276 0.00021715L14.3412 4.18664L4.18137 4.18664Z" fill="#C8C8C8"/>
<path d="M38.8638 38.8634L38.8638 28.7086L43.0452 24.5222L43.0452 43.0498L24.5176 43.0498L28.704 38.8634L38.8638 38.8634Z" fill="#C8C8C8"/>
<path d="M4.18137 38.8634L14.3412 38.8634L18.5226 43.0498L0 43.0498L1.61974e-06 24.5222L4.18137 28.7086L4.18137 38.8634Z" fill="#C8C8C8"/>
<path d="M38.8627 14.3414L38.8627 4.18664L28.7029 4.18664L24.5215 0.00021553L43.044 0.00021715L43.044 18.5278L38.8627 14.3414Z" fill="#C8C8C8"/>
<path d="M28.7032 38.8634L24.5168 43.0498L18.5232 43.0498L14.3418 38.8634L28.7032 38.8634Z" fill="black"/>
<path d="M4.18137 28.7085L3.65989e-07 24.5221L8.89969e-07 18.5284L4.18137 14.342L4.18137 28.7085Z" fill="white"/>
<path d="M14.3418 4.18652L18.5282 9.81176e-05L24.5219 9.86416e-05L28.7032 4.18652L14.3418 4.18652Z" fill="#101820"/>
<path d="M38.8633 14.342L43.0446 18.5284L43.0446 24.5221L38.8633 28.7085L38.8633 14.342Z" fill="white"/>
<path d="M38.8635 38.8628L14.3423 38.8628L4.1875 38.8628L4.1875 4.18174L38.8635 4.18174L38.8635 38.8577L38.8635 38.8628ZM31.8929 11.1524L28.4911 11.1524L21.5255 4.18679L14.5599 11.1524L11.1581 11.1524L11.1581 14.5542L4.1875 21.5197L11.1581 28.4904L11.1581 31.8922L14.5599 31.8922L21.5255 38.8577L28.4911 31.8871L31.8929 31.8871L31.8929 28.4853L38.8584 21.5147L31.8929 14.544L31.8929 11.1423L31.8929 11.1524Z" fill="#53575A"/>
<path d="M4.18164 21.5254L11.1523 14.5599L11.1523 28.4961L4.18164 21.5254Z" fill="black"/>
<path d="M21.5203 38.8628L14.5547 31.8972L28.4909 31.8972L21.5203 38.8628Z" fill="black"/>
<path d="M21.5253 4.18628L28.4909 11.1519L14.5547 11.1519L21.5253 4.18628Z" fill="black"/>
<path d="M31.8926 28.4902L31.8926 14.554L38.8582 21.5247L31.8926 28.4902Z" fill="black"/>
<path d="M11.1523 11.1522L14.5541 11.1522L11.1523 14.5591L11.1523 11.1522Z" fill="#E43D30"/>
<path d="M31.892 11.1524L31.892 14.5542L28.4902 11.1524L31.892 11.1524Z" fill="#E43D30"/>
<path d="M11.1523 31.897L11.1523 28.4952L14.5541 31.897L11.1523 31.897Z" fill="#E43D30"/>
<path d="M31.892 31.897L28.4902 31.897L31.892 28.4901L31.892 31.897Z" fill="#E43D30"/>
<path d="M28.4903 31.897L14.5541 31.897L11.1523 28.4952L11.1523 14.559L14.5541 11.1572L28.4903 11.1572L31.8921 14.559L31.8921 28.4952L28.4903 31.897ZM12.7672 21.5245L21.5248 30.2821L30.2824 21.5245L21.5248 12.767L12.7672 21.5245Z" fill="#E43D30"/>
<path d="M21.5266 30.2844L12.7676 21.5254L21.5231 12.7699L30.2821 21.529L21.5266 30.2844Z" fill="white"/>
</svg>
