<svg width="44" height="44" viewBox="0 0 44 44" fill="none" xmlns="http://www.w3.org/2000/svg">
<path d="M43.0489 43.0493L0 43.0493L3.76345e-06 0.000461578L43.0489 0.000465342L43.0489 43.0493Z" fill="black"/>
<path d="M21.5244 21.5244C9.6384 21.5244 8.42616e-07 11.886 1.88173e-06 0C11.886 1.03911e-06 21.5244 9.63841 21.5244 21.5244Z" fill="white"/>
<path d="M21.5244 21.5244C21.5244 33.4104 11.886 43.0488 0 43.0488C1.03911e-06 31.1628 9.63841 21.5244 21.5244 21.5244Z" fill="white"/>
<path d="M43.0479 43.0488C31.1619 43.0488 21.5234 33.4104 21.5234 21.5244C33.4095 21.5244 43.0479 31.1628 43.0479 43.0488Z" fill="white"/>
<path d="M21.5234 21.5244C21.5234 9.6384 31.1619 8.42617e-07 43.0479 1.88173e-06C43.0479 11.886 33.4095 21.5244 21.5234 21.5244Z" fill="white"/>
</svg>
