<svg width="44" height="44" viewBox="0 0 44 44" fill="none" xmlns="http://www.w3.org/2000/svg">
<path d="M43.0489 43.0494L0 43.0494L3.76345e-06 0.000526428L43.0489 0.000530192L43.0489 43.0494Z" fill="#C8C8C8"/>
<path d="M21.5905 3.43697L21.4488 3.43697C20.7553 3.43697 20.1124 3.7154 19.591 4.23681L16.2752 7.55253L10.3322 7.55253C9.54756 7.55253 8.86924 7.83602 8.36302 8.36755C7.83149 8.86871 7.54801 9.5521 7.54801 10.3367L7.54801 16.2797L4.2272 19.6006C3.71592 20.1118 3.4375 20.7952 3.4375 21.5292C3.4375 22.2633 3.72098 22.9467 4.2272 23.4579L7.548 26.7787L7.548 32.7217C7.548 34.2556 8.79836 35.5059 10.3322 35.5059L16.2752 35.5059L19.591 38.8217C20.1022 39.333 20.7856 39.6114 21.5196 39.6114C22.2537 39.6114 22.9371 39.3279 23.4483 38.8217L26.7641 35.5059L32.7122 35.5059C34.246 35.5059 35.4964 34.2556 35.4964 32.7217L35.4964 26.7737L38.807 23.463C39.8701 22.3999 39.8701 20.6687 38.807 19.6056L35.4913 16.2899L35.4913 10.3418C35.4913 8.80796 34.2409 7.5576 32.7071 7.5576L26.759 7.5576L23.4433 4.24186C22.9219 3.71539 22.279 3.44204 21.5855 3.44204L21.5905 3.43697ZM21.4943 5.30492L21.5956 5.30492C21.7879 5.30492 21.9601 5.38592 22.1322 5.55803L25.9946 9.42048L32.7172 9.42049C33.2032 9.42049 33.6284 9.8457 33.6284 10.3317L33.6284 17.0543L37.4909 20.9167C37.8148 21.2407 37.8148 21.8077 37.4909 22.1317L33.6284 25.9941L33.6284 32.7167C33.6284 33.2026 33.2032 33.6279 32.7172 33.6279L25.9946 33.6279L22.1271 37.4954C21.8133 37.8092 21.226 37.8092 20.9122 37.4954L17.0447 33.6279L10.3271 33.6279C9.84118 33.6279 9.41595 33.2026 9.41595 32.7167L9.41595 25.9992L5.54843 22.1316C5.39151 21.9747 5.30545 21.757 5.30545 21.5242C5.30545 21.2913 5.39151 21.0736 5.54843 20.9167L9.41595 17.0492L9.41595 10.3317C9.41595 10.0634 9.49188 9.8609 9.65387 9.7141L9.71462 9.65334C9.86143 9.49135 10.0639 9.41542 10.3322 9.41542L17.0497 9.41542L20.9122 5.55298C21.0843 5.38086 21.2564 5.29987 21.4488 5.29987L21.4893 5.29987L21.4943 5.30492Z" fill="white"/>
<path d="M21.5691 9.04573L21.5185 9.04573L21.4679 9.04573C21.0123 9.04573 20.5871 9.22796 20.2378 9.57725L17.9092 11.9059L13.743 11.9059C13.2216 11.9059 12.7711 12.0932 12.437 12.4475C12.0826 12.7816 11.8953 13.2322 11.8953 13.7536L11.8953 17.9197L9.56163 20.2534C9.22246 20.5926 9.03516 21.0431 9.03516 21.5291C9.03516 22.0151 9.22246 22.4707 9.56163 22.8048L11.8953 25.1384L11.8953 29.3046C11.8953 30.3221 12.7255 31.1473 13.7379 31.1473L17.9041 31.1473L20.2378 33.4809C20.577 33.8201 21.0275 34.0074 21.5135 34.0074C21.9994 34.0074 22.455 33.8201 22.7891 33.4809L25.1177 31.1473L29.289 31.1473C30.3065 31.1473 31.1316 30.317 31.1316 29.3046L31.1316 25.1334L33.4602 22.8048C34.1639 22.1011 34.1639 20.952 33.4602 20.2484L31.1316 17.9197L31.1316 13.7485C31.1316 12.731 30.3014 11.9059 29.289 11.9059L25.1177 11.9059L22.7891 9.57725C22.4398 9.22796 22.0197 9.04573 21.559 9.04573L21.5691 9.04573ZM21.4983 10.1645L21.5742 10.1645C21.7311 10.1645 21.8729 10.2303 22.0096 10.367L24.6672 13.0246L29.3042 13.0246C29.694 13.0246 30.0281 13.3536 30.0281 13.7485L30.0281 18.3855L32.6857 21.0431C32.9489 21.3063 32.9489 21.7518 32.6857 22.0151L30.0281 24.6727L30.0281 29.3046C30.0281 29.6944 29.699 30.0285 29.3042 30.0285L24.6723 30.0285L22.0146 32.6861C21.7615 32.9393 21.2958 32.9393 21.0477 32.6861L18.3901 30.0285L13.7582 30.0285C13.3684 30.0285 13.0343 29.6995 13.0343 29.3046L13.0343 24.6727L10.3716 22.01C10.245 21.8834 10.1741 21.7113 10.1742 21.524C10.1742 21.3367 10.245 21.1646 10.3716 21.0381L13.0343 18.3753L13.0343 13.7434C13.0343 13.5308 13.1001 13.3688 13.2267 13.2473L13.2621 13.2119C13.3836 13.0803 13.5405 13.0196 13.7582 13.0196L18.3901 13.0196L21.0477 10.3619C21.1844 10.2252 21.3262 10.1594 21.4831 10.1594L21.5084 10.1594L21.4983 10.1645Z" fill="#E43D30"/>
<path d="M27.8277 22.005C27.3721 22.4606 26.9215 22.9112 26.4659 23.3668L26.4659 25.7662C26.4659 26.1459 26.147 26.4648 25.7674 26.4648L23.3679 26.4648C22.9123 26.9204 22.4617 27.371 22.0061 27.8266C21.7429 28.0898 21.3076 28.0898 21.0443 27.8266L19.6826 26.4648L17.2831 26.4648C16.9035 26.4648 16.5845 26.1459 16.5845 25.7662L16.5845 23.3668C16.1289 22.9112 15.6784 22.4606 15.2228 22.005C14.9596 21.7418 14.9596 21.3064 15.2228 21.0432C15.6784 20.5876 16.1289 20.1371 16.5845 19.6815L16.5845 17.282C16.5845 17.0643 16.6655 16.8973 16.7921 16.7859C16.9035 16.6644 17.0705 16.5784 17.2882 16.5784L19.6877 16.5784C20.1433 16.1228 20.5938 15.6722 21.0494 15.2166C21.1962 15.0698 21.3683 15.0091 21.5303 15.0192C21.6923 15.0141 21.8593 15.0698 22.0112 15.2166C22.4618 15.6722 22.9173 16.1228 23.3729 16.5784L25.7775 16.5784C26.1571 16.5784 26.4761 16.8973 26.4761 17.2769L26.4761 19.6815C26.9317 20.1371 27.3822 20.5876 27.8378 21.0432C28.101 21.3064 28.101 21.7418 27.8378 22.005L27.8277 22.005Z" fill="#53575A"/>
<path d="M0 43.0499L6.55417e-07 35.5528C0.187302 35.5426 0.37966 35.6085 0.556837 35.7806C1.07824 36.302 1.60471 36.8284 2.12612 37.3499L4.89514 37.3499C5.33555 37.3499 5.70509 37.7194 5.70509 38.1598L5.70509 40.9288C6.2265 41.4502 6.75296 41.9767 7.27436 42.4981C7.42623 42.65 7.50216 42.8474 7.50216 43.0499L0.00505941 43.0499L0 43.0499Z" fill="#53575A"/>
<path d="M43.0432 43.0499L43.0432 35.5528C42.8559 35.5426 42.6585 35.6085 42.4863 35.7806C41.9649 36.302 41.4385 36.8284 40.9171 37.3499L38.148 37.3499C37.7076 37.3499 37.3381 37.7194 37.3381 38.1598L37.3381 40.9288C36.8167 41.4502 36.2902 41.9767 35.7688 42.4981C35.6169 42.65 35.541 42.8474 35.541 43.0499L43.0381 43.0499L43.0432 43.0499Z" fill="#53575A"/>
<path d="M43.0432 3.04004e-06L43.0432 7.49711C42.8559 7.50723 42.6585 7.44141 42.4863 7.2693C41.9649 6.74789 41.4385 6.22142 40.9171 5.70002L38.148 5.70002C37.7076 5.70002 37.3381 5.33048 37.3381 4.89006L37.3381 2.12106C36.8167 1.59966 36.2902 1.07319 35.7688 0.551779C35.6169 0.399914 35.541 0.20249 35.541 2.38419e-06L43.0381 3.0396e-06L43.0432 3.04004e-06Z" fill="#53575A"/>
<path d="M6.55505e-07 2.38419e-06L0 7.4971C0.187301 7.50723 0.37966 7.44141 0.556836 7.2693C1.07824 6.74789 1.60471 6.22142 2.12612 5.70002L4.89514 5.70002C5.33555 5.70002 5.70509 5.33048 5.70509 4.89006L5.70509 2.12106C6.2265 1.59966 6.75296 1.07319 7.27436 0.55178C7.42623 0.399914 7.50216 0.202491 7.50216 3.04005e-06L0.00506006 2.38463e-06L6.55505e-07 2.38419e-06Z" fill="#53575A"/>
</svg>
