<svg width="44" height="44" viewBox="0 0 44 44" fill="none" xmlns="http://www.w3.org/2000/svg">
                        <path d="M43.0547 43.0489L0.00585938 43.0489L0.00586314 0L43.0547 3.76345e-06L43.0547 43.0489Z" fill="#C8C8C8"/>
                        <path d="M43.0479 21.5298C31.1618 21.5298 21.5234 11.8914 21.5234 0.00538254C33.4095 0.00538358 43.0479 9.6438 43.0479 21.5298Z" fill="black"/>
                        <path d="M43.0479 21.5298C43.0479 33.4158 33.4095 43.0542 21.5234 43.0542C21.5234 31.1682 31.1618 21.5298 43.0479 21.5298Z" fill="black"/>
                        <path d="M21.5244 43.0493C9.63841 43.0493 8.42617e-07 33.4109 1.88173e-06 21.5249C11.886 21.5249 21.5244 31.1633 21.5244 43.0493Z" fill="black"/>
                        <path d="M0.00585938 21.5298C0.00586041 9.64379 9.64427 0.00538338 21.5303 0.00538442C21.5303 11.8914 11.8919 21.5298 0.00585938 21.5298Z" fill="black"/>
                    </svg>